<?xml version="1.0" encoding="UTF-8"?>
<svg xmlns="http://www.w3.org/2000/svg" xmlns:xlink="http://www.w3.org/1999/xlink" viewBox="0 0 691.46 700.44">
  <defs>
    <style>
      .cls-1 {
        opacity: .55;
      }

      .cls-2 {
        fill: url(#linear-gradient-61);
      }

      .cls-3 {
        fill: url(#linear-gradient-15);
      }

      .cls-4 {
        fill: url(#linear-gradient-13);
      }

      .cls-5 {
        fill: url(#linear-gradient-28);
      }

      .cls-6 {
        opacity: .45;
      }

      .cls-7 {
        fill: url(#linear-gradient-65);
      }

      .cls-8 {
        fill: #dec0a7;
      }

      .cls-8, .cls-9, .cls-10, .cls-11, .cls-12, .cls-13 {
        opacity: .5;
      }

      .cls-14 {
        fill: url(#linear-gradient-69);
      }

      .cls-15 {
        fill: url(#linear-gradient-53);
      }

      .cls-16 {
        fill: url(#linear-gradient-42);
      }

      .cls-17 {
        fill: url(#linear-gradient-46);
      }

      .cls-18 {
        opacity: .36;
      }

      .cls-19 {
        fill: url(#linear-gradient-70);
      }

      .cls-20 {
        fill: url(#linear-gradient-60);
      }

      .cls-21 {
        fill: url(#linear-gradient-2);
      }

      .cls-22 {
        fill: #fde1e2;
      }

      .cls-22, .cls-23, .cls-24, .cls-25, .cls-26, .cls-27 {
        opacity: .33;
      }

      .cls-28 {
        fill: url(#linear-gradient-87);
      }

      .cls-23 {
        fill: #e9cbcd;
      }

      .cls-23, .cls-9, .cls-29, .cls-30, .cls-31, .cls-32, .cls-33, .cls-34, .cls-26, .cls-11, .cls-35, .cls-36, .cls-37, .cls-38, .cls-39, .cls-40 {
        mix-blend-mode: multiply;
      }

      .cls-41 {
        fill: url(#linear-gradient-64);
      }

      .cls-9 {
        fill: #cfa9ab;
      }

      .cls-42 {
        fill: url(#linear-gradient-56);
      }

      .cls-29, .cls-43 {
        fill: #fff;
      }

      .cls-29, .cls-43, .cls-44 {
        opacity: 0;
      }

      .cls-45 {
        fill: url(#linear-gradient-43);
      }

      .cls-46 {
        fill: url(#linear-gradient-25);
      }

      .cls-47 {
        fill: url(#linear-gradient-82);
      }

      .cls-48 {
        opacity: .27;
      }

      .cls-49 {
        fill: url(#linear-gradient-10);
      }

      .cls-50 {
        fill: url(#linear-gradient-12);
      }

      .cls-30 {
        stroke: #f5b061;
        stroke-width: 3.15px;
      }

      .cls-30, .cls-38 {
        fill: none;
        stroke-miterlimit: 10;
      }

      .cls-51 {
        fill: url(#linear-gradient-40);
      }

      .cls-52 {
        fill: url(#linear-gradient-27);
      }

      .cls-53 {
        fill: url(#linear-gradient-68);
      }

      .cls-54 {
        opacity: .18;
      }

      .cls-24 {
        fill: #e4c8ca;
      }

      .cls-55 {
        fill: url(#linear-gradient-37);
      }

      .cls-56 {
        fill: url(#linear-gradient-75);
      }

      .cls-57 {
        fill: url(#linear-gradient-55);
      }

      .cls-58 {
        fill: url(#linear-gradient-39);
      }

      .cls-59 {
        fill: url(#linear-gradient-89);
      }

      .cls-60 {
        fill: url(#linear-gradient-52);
      }

      .cls-31 {
        fill: #9f5256;
      }

      .cls-25 {
        fill: #e9d5c4;
      }

      .cls-61 {
        fill: url(#linear-gradient-58);
      }

      .cls-62 {
        fill: url(#linear-gradient-47);
      }

      .cls-63 {
        fill: url(#linear-gradient-26);
      }

      .cls-10 {
        fill: #7d420c;
      }

      .cls-64 {
        fill: url(#linear-gradient-74);
      }

      .cls-65 {
        fill: url(#linear-gradient-72);
      }

      .cls-66 {
        opacity: .82;
      }

      .cls-67 {
        fill: url(#linear-gradient-4);
      }

      .cls-68 {
        fill: url(#linear-gradient-35);
      }

      .cls-69 {
        fill: #fef0f0;
      }

      .cls-69, .cls-70, .cls-71, .cls-34, .cls-39, .cls-72 {
        opacity: .17;
      }

      .cls-73 {
        fill: url(#linear-gradient-30);
      }

      .cls-74 {
        fill: #ca9295;
      }

      .cls-74, .cls-32, .cls-75, .cls-35, .cls-76, .cls-77 {
        opacity: .67;
      }

      .cls-78 {
        fill: url(#linear-gradient-76);
      }

      .cls-32 {
        fill: #d3979a;
      }

      .cls-79 {
        fill: #fdcc61;
      }

      .cls-80 {
        fill: url(#linear-gradient-73);
      }

      .cls-81 {
        fill: url(#linear-gradient-71);
      }

      .cls-82 {
        fill: url(#linear-gradient-44);
      }

      .cls-83 {
        fill: url(#linear-gradient-49);
      }

      .cls-84 {
        fill: url(#linear-gradient-3);
      }

      .cls-85 {
        fill: url(#linear-gradient-34);
      }

      .cls-86 {
        fill: url(#linear-gradient-5);
      }

      .cls-33 {
        fill: #c87d81;
      }

      .cls-33, .cls-87, .cls-36, .cls-88, .cls-89, .cls-90 {
        opacity: .83;
      }

      .cls-91 {
        fill: url(#linear-gradient-38);
      }

      .cls-92 {
        fill: url(#linear-gradient-22);
      }

      .cls-93 {
        fill: url(#linear-gradient-24);
      }

      .cls-70 {
        fill: #f4eae1;
      }

      .cls-71 {
        fill: #f2e4e4;
      }

      .cls-87 {
        fill: #fab3b7;
      }

      .cls-94 {
        fill: url(#linear-gradient-54);
      }

      .cls-95 {
        isolation: isolate;
      }

      .cls-96 {
        fill: url(#linear-gradient-90);
      }

      .cls-97 {
        fill: url(#linear-gradient-33);
      }

      .cls-98 {
        fill: url(#linear-gradient-79);
      }

      .cls-34 {
        fill: #efe2e3;
      }

      .cls-99 {
        fill: url(#linear-gradient-78);
      }

      .cls-100 {
        fill: url(#linear-gradient-51);
      }

      .cls-101 {
        fill: url(#linear-gradient-8);
      }

      .cls-102 {
        fill: url(#linear-gradient-66);
      }

      .cls-103 {
        fill: url(#linear-gradient-57);
      }

      .cls-26 {
        fill: #dfc5c7;
      }

      .cls-104 {
        fill: #bc804e;
      }

      .cls-75 {
        fill: #d2aa89;
      }

      .cls-105 {
        fill: url(#linear-gradient-77);
      }

      .cls-106 {
        fill: url(#linear-gradient-88);
      }

      .cls-11 {
        fill: #deb1b3;
      }

      .cls-107 {
        opacity: .91;
      }

      .cls-108 {
        fill: url(#linear-gradient-14);
      }

      .cls-109 {
        fill: url(#linear-gradient-62);
      }

      .cls-35 {
        fill: #bf8c8e;
      }

      .cls-110 {
        fill: url(#linear-gradient-29);
      }

      .cls-111 {
        opacity: .64;
      }

      .cls-112 {
        fill: url(#linear-gradient-20);
      }

      .cls-113 {
        mix-blend-mode: screen;
      }

      .cls-114 {
        fill: url(#linear-gradient-67);
      }

      .cls-115 {
        fill: url(#linear-gradient-17);
      }

      .cls-116 {
        fill: url(#linear-gradient-50);
      }

      .cls-117 {
        fill: url(#linear-gradient-7);
      }

      .cls-36 {
        fill: #af6f72;
      }

      .cls-118 {
        fill: url(#linear-gradient-9);
      }

      .cls-119 {
        fill: url(#linear-gradient-59);
      }

      .cls-120 {
        fill: url(#linear-gradient-11);
      }

      .cls-121 {
        fill: url(#linear-gradient-19);
      }

      .cls-122 {
        fill: url(#linear-gradient-80);
      }

      .cls-12 {
        fill: #fcd2d3;
      }

      .cls-123 {
        fill: url(#linear-gradient-6);
      }

      .cls-124 {
        fill: #f5b061;
      }

      .cls-125 {
        fill: url(#linear-gradient-83);
      }

      .cls-126 {
        opacity: .09;
      }

      .cls-88 {
        fill: #d06e13;
      }

      .cls-89 {
        fill: #c7956c;
      }

      .cls-38 {
        stroke: #e2b591;
        stroke-width: 3.42px;
      }

      .cls-127 {
        fill: url(#linear-gradient-36);
      }

      .cls-128 {
        fill: url(#linear-gradient-21);
      }

      .cls-129 {
        fill: url(#linear-gradient-45);
      }

      .cls-13 {
        fill: #d7adb0;
      }

      .cls-130 {
        fill: url(#linear-gradient-85);
      }

      .cls-131 {
        fill: url(#linear-gradient-81);
      }

      .cls-76 {
        fill: #a7580f;
      }

      .cls-132 {
        fill: url(#linear-gradient-84);
      }

      .cls-39 {
        fill: #f4e5e6;
      }

      .cls-133 {
        fill: url(#linear-gradient-48);
      }

      .cls-90 {
        fill: #bc767b;
      }

      .cls-134 {
        fill: url(#linear-gradient-32);
      }

      .cls-135 {
        fill: url(#linear-gradient-86);
      }

      .cls-136 {
        opacity: .73;
      }

      .cls-137 {
        fill: url(#linear-gradient-41);
      }

      .cls-77 {
        fill: #fbc2c5;
      }

      .cls-138 {
        fill: url(#linear-gradient-16);
      }

      .cls-139 {
        fill: #f9a4a8;
      }

      .cls-140 {
        fill: url(#linear-gradient);
      }

      .cls-72 {
        fill: #2a1604;
      }

      .cls-141 {
        fill: #af5b60;
      }

      .cls-142 {
        fill: url(#linear-gradient-23);
      }

      .cls-143 {
        fill: url(#linear-gradient-31);
      }

      .cls-144 {
        fill: #fa8417;
      }

      .cls-145 {
        fill: url(#linear-gradient-63);
      }

      .cls-27 {
        fill: #532c08;
      }

      .cls-40 {
        fill: #bd6368;
      }

      .cls-146 {
        fill: url(#linear-gradient-18);
      }
    </style>
    <linearGradient id="linear-gradient" x1="47.08" y1="166.43" x2="210.98" y2="384.52" gradientTransform="translate(10.51 -6.45) rotate(2.08)" gradientUnits="userSpaceOnUse">
      <stop offset=".06" stop-color="#f6aa53"/>
      <stop offset="1" stop-color="#fab257"/>
    </linearGradient>
    <linearGradient id="linear-gradient-2" x1="48.55" y1="170.85" x2="208.95" y2="384.27" gradientTransform="translate(21.02 -12.91) rotate(4.18)" gradientUnits="userSpaceOnUse">
      <stop offset=".06" stop-color="#f08844"/>
      <stop offset="1" stop-color="#f7994e"/>
    </linearGradient>
    <linearGradient id="linear-gradient-3" x1="50.41" y1="175.57" x2="206.87" y2="383.76" gradientTransform="translate(31.53 -19.36) rotate(6.28)" gradientUnits="userSpaceOnUse">
      <stop offset=".06" stop-color="#ea6636"/>
      <stop offset="1" stop-color="#f37f44"/>
    </linearGradient>
    <linearGradient id="linear-gradient-4" x1="52.64" y1="180.57" x2="204.77" y2="382.99" gradientTransform="translate(42.04 -25.82) rotate(8.38)" gradientUnits="userSpaceOnUse">
      <stop offset=".06" stop-color="#e34428"/>
      <stop offset="1" stop-color="#f0653a"/>
    </linearGradient>
    <linearGradient id="linear-gradient-5" x1="55.21" y1="185.8" x2="202.65" y2="381.97" gradientTransform="translate(52.55 -32.27) rotate(10.47)" gradientUnits="userSpaceOnUse">
      <stop offset=".06" stop-color="#dd2219"/>
      <stop offset="1" stop-color="#ed4c31"/>
    </linearGradient>
    <linearGradient id="linear-gradient-6" x1="58.11" y1="191.22" x2="200.53" y2="380.71" gradientTransform="translate(63.06 -38.73) rotate(12.56)" gradientUnits="userSpaceOnUse">
      <stop offset=".06" stop-color="#d6000b"/>
      <stop offset="1" stop-color="#ea3227"/>
    </linearGradient>
    <linearGradient id="linear-gradient-7" x1="-14.17" y1="124.56" x2="23.2" y2="189.67" gradientTransform="translate(133.74 59.3) rotate(6.23)" gradientUnits="userSpaceOnUse">
      <stop offset=".02" stop-color="#f9b751"/>
      <stop offset=".29" stop-color="#fce89d"/>
      <stop offset=".29" stop-color="#fbe79c"/>
      <stop offset=".46" stop-color="#f8b55c"/>
      <stop offset=".58" stop-color="#f69635"/>
      <stop offset=".64" stop-color="#f68b26"/>
      <stop offset=".71" stop-color="#f28620"/>
      <stop offset=".8" stop-color="#ea7912"/>
      <stop offset=".86" stop-color="#e26e04"/>
      <stop offset=".92" stop-color="#e26f05"/>
      <stop offset=".94" stop-color="#e3750c"/>
      <stop offset=".96" stop-color="#e67f18"/>
      <stop offset=".97" stop-color="#e98d29"/>
      <stop offset=".98" stop-color="#ee9f3f"/>
      <stop offset=".99" stop-color="#f4b659"/>
      <stop offset="1" stop-color="#fad079"/>
      <stop offset="1" stop-color="#fbd17a"/>
    </linearGradient>
    <linearGradient id="linear-gradient-8" x1="-84.23" y1="105.24" x2="-61.28" y2="125.12" gradientTransform="translate(198.62 103.98) rotate(2.91)" gradientUnits="userSpaceOnUse">
      <stop offset=".06" stop-color="#f8ce9c"/>
      <stop offset=".96" stop-color="#e45e00"/>
    </linearGradient>
    <linearGradient id="linear-gradient-9" x1="-87.12" y1="113.5" x2="-49.69" y2="115.83" gradientTransform="translate(198.62 103.98) rotate(2.91)" xlink:href="#linear-gradient-7"/>
    <linearGradient id="linear-gradient-10" x1="117.14" y1="290.71" x2="62.54" y2="521.35" gradientTransform="translate(-.4 -15.29) rotate(1.84)" gradientUnits="userSpaceOnUse">
      <stop offset=".06" stop-color="#f9b959"/>
      <stop offset="1" stop-color="#fbbe5c"/>
    </linearGradient>
    <linearGradient id="linear-gradient-11" x1="131.2" y1="305.21" x2="77.27" y2="532.97" gradientTransform="translate(-.8 -30.59) rotate(3.69)" gradientUnits="userSpaceOnUse">
      <stop offset=".06" stop-color="#f6a751"/>
      <stop offset="1" stop-color="#fab056"/>
    </linearGradient>
    <linearGradient id="linear-gradient-12" x1="146.17" y1="319.06" x2="93.04" y2="543.45" gradientTransform="translate(-1.2 -45.88) rotate(5.56) scale(.99)" gradientUnits="userSpaceOnUse">
      <stop offset=".06" stop-color="#f2944a"/>
      <stop offset="1" stop-color="#f8a251"/>
    </linearGradient>
    <linearGradient id="linear-gradient-13" x1="161.97" y1="332.18" x2="109.76" y2="552.69" gradientTransform="translate(-1.6 -61.18) rotate(7.43) scale(.99)" gradientUnits="userSpaceOnUse">
      <stop offset=".06" stop-color="#ef8242"/>
      <stop offset="1" stop-color="#f6944c"/>
    </linearGradient>
    <linearGradient id="linear-gradient-14" x1="178.52" y1="344.46" x2="127.34" y2="560.62" gradientTransform="translate(-1.99 -76.47) rotate(9.32) scale(.98)" gradientUnits="userSpaceOnUse">
      <stop offset=".06" stop-color="#eb6f3a"/>
      <stop offset="1" stop-color="#f48647"/>
    </linearGradient>
    <linearGradient id="linear-gradient-15" x1="195.71" y1="355.81" x2="145.67" y2="567.17" gradientTransform="translate(-2.39 -91.77) rotate(11.2) scale(.98)" gradientUnits="userSpaceOnUse">
      <stop offset=".06" stop-color="#e85d32"/>
      <stop offset="1" stop-color="#f37841"/>
    </linearGradient>
    <linearGradient id="linear-gradient-16" x1="213.43" y1="366.17" x2="164.62" y2="572.3" gradientTransform="translate(-2.79 -107.06) rotate(13.08) scale(.99)" gradientUnits="userSpaceOnUse">
      <stop offset=".06" stop-color="#e44a2a"/>
      <stop offset="1" stop-color="#f16a3c"/>
    </linearGradient>
    <linearGradient id="linear-gradient-17" x1="231.56" y1="375.47" x2="184.08" y2="575.99" gradientTransform="translate(-3.19 -122.36) rotate(14.96) scale(.99)" gradientUnits="userSpaceOnUse">
      <stop offset=".06" stop-color="#e13822"/>
      <stop offset="1" stop-color="#ef5c37"/>
    </linearGradient>
    <linearGradient id="linear-gradient-18" x1="249.98" y1="383.67" x2="203.92" y2="578.24" gradientTransform="translate(-3.59 -137.65) rotate(16.83)" gradientUnits="userSpaceOnUse">
      <stop offset=".06" stop-color="#dd251b"/>
      <stop offset="1" stop-color="#ed4e32"/>
    </linearGradient>
    <linearGradient id="linear-gradient-19" x1="268.57" y1="390.75" x2="223.99" y2="579.04" gradientTransform="translate(-3.99 -152.95) rotate(18.68)" gradientUnits="userSpaceOnUse">
      <stop offset=".06" stop-color="#da1313"/>
      <stop offset="1" stop-color="#ec402c"/>
    </linearGradient>
    <linearGradient id="linear-gradient-20" x1="287.21" y1="396.67" x2="244.17" y2="578.44" gradientTransform="translate(-4.39 -168.24) rotate(20.52)" xlink:href="#linear-gradient-6"/>
    <linearGradient id="linear-gradient-21" x1="968.63" y1="-1897.42" x2="1037.02" y2="-1840.72" gradientTransform="translate(880.92 -1646.13) rotate(50.87) scale(1 -1)" xlink:href="#linear-gradient-7"/>
    <linearGradient id="linear-gradient-22" x1="510.56" y1="506.64" x2="534.26" y2="527.18" gradientTransform="translate(-87.88 -383.14) rotate(32.89)" xlink:href="#linear-gradient-8"/>
    <linearGradient id="linear-gradient-23" x1="507.32" y1="515.14" x2="546.64" y2="517.58" gradientTransform="translate(-87.88 -383.14) rotate(32.89)" xlink:href="#linear-gradient-7"/>
    <linearGradient id="linear-gradient-24" x1="241.48" y1="516.51" x2="275.79" y2="552.46" gradientTransform="translate(75.63 .07) rotate(10.61)" gradientUnits="userSpaceOnUse">
      <stop offset=".01" stop-color="#fdcc61"/>
      <stop offset="1" stop-color="#fff"/>
    </linearGradient>
    <linearGradient id="linear-gradient-25" x1="224.31" y1="510.86" x2="263.5" y2="560.15" gradientTransform="translate(75.09 -1.82) rotate(10.71)" gradientUnits="userSpaceOnUse">
      <stop offset=".01" stop-color="#f9b959"/>
      <stop offset=".06" stop-color="#f9bb60"/>
      <stop offset="1" stop-color="#fdeceb"/>
    </linearGradient>
    <linearGradient id="linear-gradient-26" x1="215.1" y1="504.64" x2="256.93" y2="568.29" gradientTransform="translate(74.55 -3.71) rotate(10.8)" gradientUnits="userSpaceOnUse">
      <stop offset=".01" stop-color="#f6a751"/>
      <stop offset=".06" stop-color="#f6a957"/>
      <stop offset="1" stop-color="#fbdad8"/>
    </linearGradient>
    <linearGradient id="linear-gradient-27" x1="209.02" y1="497.09" x2="250.31" y2="574.33" gradientTransform="translate(74.01 -5.61) rotate(10.9)" gradientUnits="userSpaceOnUse">
      <stop offset=".01" stop-color="#f2944a"/>
      <stop offset=".06" stop-color="#f2964f"/>
      <stop offset="1" stop-color="#f9c7c4"/>
    </linearGradient>
    <linearGradient id="linear-gradient-28" x1="203.6" y1="486.2" x2="242.97" y2="579.21" gradientTransform="translate(73.47 -7.5) rotate(11)" gradientUnits="userSpaceOnUse">
      <stop offset=".01" stop-color="#ef8242"/>
      <stop offset=".06" stop-color="#ef8346"/>
      <stop offset="1" stop-color="#f7b4b0"/>
    </linearGradient>
    <linearGradient id="linear-gradient-29" x1="200.5" y1="474.54" x2="235.09" y2="582.51" gradientTransform="translate(72.93 -9.39) rotate(11.1)" gradientUnits="userSpaceOnUse">
      <stop offset=".01" stop-color="#eb6f3a"/>
      <stop offset=".06" stop-color="#eb703e"/>
      <stop offset="1" stop-color="#f5a29d"/>
    </linearGradient>
    <linearGradient id="linear-gradient-30" x1="199.88" y1="462.88" x2="226.95" y2="584.18" gradientTransform="translate(72.39 -11.28) rotate(11.2)" gradientUnits="userSpaceOnUse">
      <stop offset=".01" stop-color="#e85d32"/>
      <stop offset=".06" stop-color="#e85e35"/>
      <stop offset="1" stop-color="#f48f89"/>
    </linearGradient>
    <linearGradient id="linear-gradient-31" x1="201.66" y1="451.8" x2="218.86" y2="584.21" gradientTransform="translate(71.85 -13.18) rotate(11.3)" gradientUnits="userSpaceOnUse">
      <stop offset=".01" stop-color="#e44a2a"/>
      <stop offset=".06" stop-color="#e44b2d"/>
      <stop offset="1" stop-color="#f27d76"/>
    </linearGradient>
    <linearGradient id="linear-gradient-32" x1="205.64" y1="441.85" x2="211.1" y2="582.65" gradientTransform="translate(71.31 -15.07) rotate(11.4)" gradientUnits="userSpaceOnUse">
      <stop offset=".01" stop-color="#e13822"/>
      <stop offset=".06" stop-color="#e13824"/>
      <stop offset="1" stop-color="#f06a62"/>
    </linearGradient>
    <linearGradient id="linear-gradient-33" x1="211.48" y1="433.48" x2="203.93" y2="579.61" gradientTransform="translate(70.78 -16.96) rotate(11.5)" gradientUnits="userSpaceOnUse">
      <stop offset=".01" stop-color="#dd251b"/>
      <stop offset=".06" stop-color="#dd251c"/>
      <stop offset="1" stop-color="#ee574e"/>
    </linearGradient>
    <linearGradient id="linear-gradient-34" x1="218.8" y1="427.05" x2="197.6" y2="575.24" gradientTransform="translate(70.24 -18.85) rotate(11.6)" gradientUnits="userSpaceOnUse">
      <stop offset=".01" stop-color="#da1313"/>
      <stop offset=".06" stop-color="#da1313"/>
      <stop offset="1" stop-color="#ec453b"/>
    </linearGradient>
    <linearGradient id="linear-gradient-35" x1="227.1" y1="422.81" x2="192.31" y2="569.76" gradientTransform="translate(69.7 -20.74) rotate(11.7)" xlink:href="#linear-gradient-6"/>
    <linearGradient id="linear-gradient-36" x1="932.38" y1="-1935.37" x2="997.49" y2="-1881.4" gradientTransform="translate(718.6 -1616.3) rotate(42.05) scale(1 -1)" xlink:href="#linear-gradient-7"/>
    <linearGradient id="linear-gradient-37" x1="436.82" y1="523" x2="458.49" y2="541.76" gradientTransform="translate(-39.99 -199.33) rotate(22.99)" xlink:href="#linear-gradient-8"/>
    <linearGradient id="linear-gradient-38" x1="433.79" y1="530.75" x2="469.94" y2="532.99" gradientTransform="translate(-39.99 -199.33) rotate(22.99)" xlink:href="#linear-gradient-7"/>
    <linearGradient id="linear-gradient-39" x1="259.6" y1="305.46" x2="202.21" y2="547.85" gradientTransform="translate(-2.79 -20.51) rotate(2.14)" xlink:href="#linear-gradient-10"/>
    <linearGradient id="linear-gradient-40" x1="280.77" y1="319.77" x2="224.02" y2="559.48" gradientTransform="translate(-5.57 -41.02) rotate(4.31) scale(.99)" xlink:href="#linear-gradient-11"/>
    <linearGradient id="linear-gradient-41" x1="303.06" y1="332.87" x2="247.12" y2="569.17" gradientTransform="translate(-8.36 -61.52) rotate(6.51) scale(.98)" xlink:href="#linear-gradient-12"/>
    <linearGradient id="linear-gradient-42" x1="326.31" y1="344.61" x2="271.34" y2="576.77" gradientTransform="translate(-11.15 -82.03) rotate(8.72) scale(.98)" xlink:href="#linear-gradient-13"/>
    <linearGradient id="linear-gradient-43" x1="350.31" y1="354.86" x2="296.49" y2="582.18" gradientTransform="translate(-13.93 -102.54) rotate(10.94) scale(.98)" xlink:href="#linear-gradient-14"/>
    <linearGradient id="linear-gradient-44" x1="374.87" y1="363.5" x2="322.35" y2="585.32" gradientTransform="translate(-16.72 -123.05) rotate(13.16) scale(.98)" xlink:href="#linear-gradient-15"/>
    <linearGradient id="linear-gradient-45" x1="399.75" y1="370.47" x2="348.68" y2="586.17" gradientTransform="translate(-19.5 -143.56) rotate(15.38) scale(.98)" xlink:href="#linear-gradient-16"/>
    <linearGradient id="linear-gradient-46" x1="424.73" y1="375.71" x2="375.24" y2="584.74" gradientTransform="translate(-22.29 -164.07) rotate(17.59) scale(.98)" xlink:href="#linear-gradient-17"/>
    <linearGradient id="linear-gradient-47" x1="449.6" y1="379.22" x2="401.8" y2="581.09" gradientTransform="translate(-25.08 -184.57) rotate(19.79) scale(.99)" xlink:href="#linear-gradient-18"/>
    <linearGradient id="linear-gradient-48" x1="474.12" y1="381" x2="428.12" y2="575.29" gradientTransform="translate(-27.86 -205.08) rotate(21.96)" xlink:href="#linear-gradient-19"/>
    <linearGradient id="linear-gradient-49" x1="498.11" y1="381.11" x2="453.98" y2="567.47" gradientTransform="translate(-30.65 -225.59) rotate(24.1)" xlink:href="#linear-gradient-6"/>
    <linearGradient id="linear-gradient-50" x1="1136.53" y1="-1780.6" x2="1207.59" y2="-1721.69" gradientTransform="translate(945.86 -1645.25) rotate(54.46) scale(1 -1)" xlink:href="#linear-gradient-7"/>
    <linearGradient id="linear-gradient-51" x1="349.15" y1="372.4" x2="374.06" y2="393.97" gradientTransform="translate(-7.85 -130.6) rotate(19.2)" xlink:href="#linear-gradient-8"/>
    <linearGradient id="linear-gradient-52" x1="346.25" y1="381.35" x2="386.16" y2="383.83" gradientTransform="translate(-7.85 -130.6) rotate(19.2)" xlink:href="#linear-gradient-7"/>
    <linearGradient id="linear-gradient-53" x1="391.98" y1="-.57" x2="391.98" y2="672.57" gradientTransform="translate(9.26 5.43) rotate(-.86)" gradientUnits="userSpaceOnUse">
      <stop offset="0" stop-color="#171717"/>
      <stop offset="1" stop-color="#160900"/>
    </linearGradient>
    <linearGradient id="linear-gradient-54" x1="377.59" y1="7.4" x2="377.59" y2="663.06" gradientTransform="translate(18.52 10.86) rotate(-1.73)" gradientUnits="userSpaceOnUse">
      <stop offset="0" stop-color="#2d2d2d"/>
      <stop offset="1" stop-color="#2d1200"/>
    </linearGradient>
    <linearGradient id="linear-gradient-55" x1="363.23" y1="14.91" x2="363.23" y2="653.08" gradientTransform="translate(27.78 16.29) rotate(-2.59)" gradientUnits="userSpaceOnUse">
      <stop offset="0" stop-color="#444"/>
      <stop offset="1" stop-color="#431b00"/>
    </linearGradient>
    <linearGradient id="linear-gradient-56" x1="348.92" y1="21.96" x2="348.92" y2="642.65" gradientTransform="translate(37.04 21.72) rotate(-3.46)" gradientUnits="userSpaceOnUse">
      <stop offset="0" stop-color="#5b5b5b"/>
      <stop offset="1" stop-color="#592400"/>
    </linearGradient>
    <linearGradient id="linear-gradient-57" x1="334.68" y1="28.56" x2="334.68" y2="631.77" gradientTransform="translate(46.31 27.15) rotate(-4.33)" gradientUnits="userSpaceOnUse">
      <stop offset="0" stop-color="#717171"/>
      <stop offset="1" stop-color="#6f2d00"/>
    </linearGradient>
    <linearGradient id="linear-gradient-58" x1="320.52" y1="34.69" x2="320.52" y2="620.46" gradientTransform="translate(55.57 32.58) rotate(-5.2)" gradientUnits="userSpaceOnUse">
      <stop offset="0" stop-color="#888"/>
      <stop offset="1" stop-color="#863700"/>
    </linearGradient>
    <linearGradient id="linear-gradient-59" x1="306.47" y1="40.37" x2="306.47" y2="608.73" gradientTransform="translate(64.83 38.01) rotate(-6.06)" gradientUnits="userSpaceOnUse">
      <stop offset="0" stop-color="#9e9e9e"/>
      <stop offset="1" stop-color="#9c4000"/>
    </linearGradient>
    <linearGradient id="linear-gradient-60" x1="292.54" y1="45.59" x2="292.54" y2="596.6" gradientTransform="translate(74.09 43.44) rotate(-6.93)" gradientUnits="userSpaceOnUse">
      <stop offset="0" stop-color="#b5b5b5"/>
      <stop offset="1" stop-color="#b24900"/>
    </linearGradient>
    <linearGradient id="linear-gradient-61" x1="278.76" y1="50.35" x2="278.76" y2="584.09" gradientTransform="translate(83.35 48.87) rotate(-7.8)" gradientUnits="userSpaceOnUse">
      <stop offset="0" stop-color="#ccc"/>
      <stop offset="1" stop-color="#c85200"/>
    </linearGradient>
    <linearGradient id="linear-gradient-62" x1="265.15" y1="54.66" x2="265.15" y2="571.21" gradientTransform="translate(92.61 54.3) rotate(-8.66)" gradientUnits="userSpaceOnUse">
      <stop offset="0" stop-color="#e2e2e2"/>
      <stop offset="1" stop-color="#df5b00"/>
    </linearGradient>
    <linearGradient id="linear-gradient-63" x1="251.71" y1="58.51" x2="251.71" y2="557.99" gradientTransform="translate(151.07 13.7)" gradientUnits="userSpaceOnUse">
      <stop offset="0" stop-color="#f9f9f9"/>
      <stop offset="1" stop-color="#f56400"/>
    </linearGradient>
    <linearGradient id="linear-gradient-64" x1="253.85" y1="52.8" x2="253.85" y2="599.74" gradientTransform="translate(151.88 13.27)" gradientUnits="userSpaceOnUse">
      <stop offset="0" stop-color="#fdac48"/>
      <stop offset=".05" stop-color="#fdae4b"/>
      <stop offset=".39" stop-color="#feba62"/>
      <stop offset=".71" stop-color="#fec170"/>
      <stop offset="1" stop-color="#ffc475"/>
    </linearGradient>
    <linearGradient id="linear-gradient-65" x1="253.85" y1="53.04" x2="253.85" y2="599.91" gradientTransform="translate(151.91 13.27)" gradientUnits="userSpaceOnUse">
      <stop offset="0" stop-color="#fc9c43"/>
      <stop offset=".34" stop-color="#fdac57"/>
      <stop offset=".7" stop-color="#fdb866"/>
      <stop offset="1" stop-color="#febd6c"/>
    </linearGradient>
    <linearGradient id="linear-gradient-66" x1="253.85" y1="53.28" x2="253.85" y2="600.09" gradientTransform="translate(151.95 13.27)" gradientUnits="userSpaceOnUse">
      <stop offset="0" stop-color="#fc8d3f"/>
      <stop offset=".32" stop-color="#fca050"/>
      <stop offset=".71" stop-color="#fcb15e"/>
      <stop offset="1" stop-color="#fdb764"/>
    </linearGradient>
    <linearGradient id="linear-gradient-67" x1="253.85" y1="53.53" x2="253.85" y2="600.26" gradientTransform="translate(151.98 13.26)" gradientUnits="userSpaceOnUse">
      <stop offset="0" stop-color="#fb7d3a"/>
      <stop offset=".37" stop-color="#fb964a"/>
      <stop offset=".74" stop-color="#fba956"/>
      <stop offset="1" stop-color="#fcb05b"/>
    </linearGradient>
    <linearGradient id="linear-gradient-68" x1="253.85" y1="53.78" x2="253.85" y2="600.42" gradientTransform="translate(152.02 13.26)" gradientUnits="userSpaceOnUse">
      <stop offset="0" stop-color="#fa6d36"/>
      <stop offset=".4" stop-color="#fa8c44"/>
      <stop offset=".76" stop-color="#faa14e"/>
      <stop offset="1" stop-color="#fba952"/>
    </linearGradient>
    <linearGradient id="linear-gradient-69" x1="253.85" y1="54.04" x2="253.85" y2="600.58" gradientTransform="translate(152.05 13.26)" gradientUnits="userSpaceOnUse">
      <stop offset="0" stop-color="#f95e31"/>
      <stop offset=".41" stop-color="#f9803d"/>
      <stop offset=".77" stop-color="#f99846"/>
      <stop offset="1" stop-color="#faa24a"/>
    </linearGradient>
    <linearGradient id="linear-gradient-70" x1="253.85" y1="54.3" x2="253.85" y2="600.73" gradientTransform="translate(152.09 13.26)" gradientUnits="userSpaceOnUse">
      <stop offset="0" stop-color="#f94e2d"/>
      <stop offset=".4" stop-color="#f97336"/>
      <stop offset=".78" stop-color="#f9903e"/>
      <stop offset="1" stop-color="#fa9c41"/>
    </linearGradient>
    <linearGradient id="linear-gradient-71" x1="253.85" y1="54.57" x2="253.85" y2="600.88" gradientTransform="translate(152.12 13.25)" gradientUnits="userSpaceOnUse">
      <stop offset="0" stop-color="#f83f28"/>
      <stop offset=".36" stop-color="#f8622f"/>
      <stop offset=".78" stop-color="#f88736"/>
      <stop offset="1" stop-color="#f99539"/>
    </linearGradient>
    <linearGradient id="linear-gradient-72" x1="253.85" y1="54.85" x2="253.85" y2="601.02" gradientTransform="translate(152.16 13.25)" gradientUnits="userSpaceOnUse">
      <stop offset="0" stop-color="#f72f24"/>
      <stop offset=".26" stop-color="#f74b27"/>
      <stop offset=".75" stop-color="#f77b2d"/>
      <stop offset="1" stop-color="#f88e30"/>
    </linearGradient>
    <linearGradient id="linear-gradient-73" x1="253.85" y1="55.13" x2="253.85" y2="601.16" gradientTransform="translate(152.19 13.25)" gradientUnits="userSpaceOnUse">
      <stop offset="0" stop-color="#f61f1f"/>
      <stop offset=".03" stop-color="#f6221f"/>
      <stop offset=".69" stop-color="#f66a24"/>
      <stop offset="1" stop-color="#f78727"/>
    </linearGradient>
    <linearGradient id="linear-gradient-74" x1="253.85" y1="55.41" x2="253.85" y2="601.29" gradientTransform="translate(152.23 13.24)" gradientUnits="userSpaceOnUse">
      <stop offset="0" stop-color="#f6101b"/>
      <stop offset=".48" stop-color="#f6481c"/>
      <stop offset="1" stop-color="#f6811f"/>
    </linearGradient>
    <linearGradient id="linear-gradient-75" x1="253.85" y1="55.7" x2="253.85" y2="601.42" gradientTransform="translate(152.26 13.24)" gradientUnits="userSpaceOnUse">
      <stop offset="0" stop-color="#f50016"/>
      <stop offset="1" stop-color="#f57a16"/>
    </linearGradient>
    <linearGradient id="linear-gradient-76" x1="253.85" y1="86.71" x2="253.85" y2="599.16" gradientTransform="translate(152.32 13.24)" gradientUnits="userSpaceOnUse">
      <stop offset="0" stop-color="#f40016"/>
      <stop offset=".77" stop-color="#f45516"/>
      <stop offset="1" stop-color="#f46f15"/>
    </linearGradient>
    <linearGradient id="linear-gradient-77" x1="253.85" y1="117.36" x2="253.85" y2="596.91" gradientTransform="translate(152.37 13.23)" gradientUnits="userSpaceOnUse">
      <stop offset="0" stop-color="#f30016"/>
      <stop offset=".77" stop-color="#f34c16"/>
      <stop offset="1" stop-color="#f26414"/>
    </linearGradient>
    <linearGradient id="linear-gradient-78" x1="253.85" y1="147.64" x2="253.85" y2="594.68" gradientTransform="translate(152.43 13.23)" gradientUnits="userSpaceOnUse">
      <stop offset="0" stop-color="#f20015"/>
      <stop offset=".77" stop-color="#f24415"/>
      <stop offset="1" stop-color="#f15913"/>
    </linearGradient>
    <linearGradient id="linear-gradient-79" x1="253.85" y1="177.55" x2="253.85" y2="592.46" gradientTransform="translate(152.48 13.22)" gradientUnits="userSpaceOnUse">
      <stop offset="0" stop-color="#f10015"/>
      <stop offset=".77" stop-color="#f13b15"/>
      <stop offset="1" stop-color="#f04e12"/>
    </linearGradient>
    <linearGradient id="linear-gradient-80" x1="253.85" y1="207.09" x2="253.85" y2="590.24" gradientTransform="translate(152.53 13.22)" gradientUnits="userSpaceOnUse">
      <stop offset="0" stop-color="#f00015"/>
      <stop offset=".77" stop-color="#f03315"/>
      <stop offset="1" stop-color="#ef4311"/>
    </linearGradient>
    <linearGradient id="linear-gradient-81" x1="253.85" y1="236.26" x2="253.85" y2="588.04" gradientTransform="translate(152.59 13.21)" gradientUnits="userSpaceOnUse">
      <stop offset="0" stop-color="#ee0015"/>
      <stop offset=".77" stop-color="#ee2a15"/>
      <stop offset="1" stop-color="#ed3710"/>
    </linearGradient>
    <linearGradient id="linear-gradient-82" x1="253.85" y1="265.07" x2="253.85" y2="585.85" gradientTransform="translate(152.64 13.21)" gradientUnits="userSpaceOnUse">
      <stop offset="0" stop-color="#ed0015"/>
      <stop offset=".77" stop-color="#ed2215"/>
      <stop offset="1" stop-color="#ec2c0f"/>
    </linearGradient>
    <linearGradient id="linear-gradient-83" x1="253.85" y1="293.51" x2="253.85" y2="583.67" gradientTransform="translate(152.69 13.21)" gradientUnits="userSpaceOnUse">
      <stop offset="0" stop-color="#ec0015"/>
      <stop offset=".77" stop-color="#ec1915"/>
      <stop offset="1" stop-color="#eb210e"/>
    </linearGradient>
    <linearGradient id="linear-gradient-84" x1="253.85" y1="321.58" x2="253.85" y2="581.5" gradientTransform="translate(152.75 13.2)" gradientUnits="userSpaceOnUse">
      <stop offset="0" stop-color="#eb0014"/>
      <stop offset=".77" stop-color="#eb1114"/>
      <stop offset="1" stop-color="#ea160d"/>
    </linearGradient>
    <linearGradient id="linear-gradient-85" x1="253.85" y1="349.29" x2="253.85" y2="579.34" gradientTransform="translate(152.8 13.2)" gradientUnits="userSpaceOnUse">
      <stop offset="0" stop-color="#ea0014"/>
      <stop offset=".77" stop-color="#ea0814"/>
      <stop offset="1" stop-color="#e80b0c"/>
    </linearGradient>
    <linearGradient id="linear-gradient-86" x1="253.85" y1="376.63" x2="253.85" y2="577.19" gradientTransform="translate(152.86 13.19)" gradientUnits="userSpaceOnUse">
      <stop offset=".77" stop-color="#e90014"/>
      <stop offset="1" stop-color="#e7000b"/>
    </linearGradient>
    <linearGradient id="linear-gradient-87" x1="71.31" y1="112.46" x2="444.25" y2="112.46" gradientTransform="translate(101.87 59.73) rotate(-9.52)" xlink:href="#linear-gradient-7"/>
    <linearGradient id="linear-gradient-88" x1="244.67" y1="109.23" x2="261.88" y2="163.15" gradientTransform="translate(101.87 59.73) rotate(-9.52)" gradientUnits="userSpaceOnUse">
      <stop offset=".06" stop-color="#ffd073"/>
      <stop offset=".96" stop-color="#bb4b00"/>
    </linearGradient>
    <linearGradient id="linear-gradient-89" x1="213.95" y1="87.86" x2="289.06" y2="182.23" gradientTransform="translate(101.87 59.73) rotate(-9.52)" gradientUnits="userSpaceOnUse">
      <stop offset="0" stop-color="#f9bb58"/>
      <stop offset=".18" stop-color="#fce89d"/>
      <stop offset=".18" stop-color="#fbe79c"/>
      <stop offset=".34" stop-color="#f8b55c"/>
      <stop offset=".46" stop-color="#f69635"/>
      <stop offset=".52" stop-color="#f68b26"/>
      <stop offset=".64" stop-color="#f28620"/>
      <stop offset=".77" stop-color="#ea7912"/>
      <stop offset=".86" stop-color="#e26e04"/>
    </linearGradient>
    <linearGradient id="linear-gradient-90" x1="225.3" y1="111.46" x2="278.83" y2="161.2" gradientTransform="translate(101.87 59.73) rotate(-9.52)" gradientUnits="userSpaceOnUse">
      <stop offset="0" stop-color="#f9bb58"/>
      <stop offset=".23" stop-color="#fce89d"/>
      <stop offset=".23" stop-color="#fbe79c"/>
      <stop offset=".44" stop-color="#f8b55c"/>
      <stop offset=".59" stop-color="#f69635"/>
      <stop offset=".66" stop-color="#f68b26"/>
      <stop offset=".77" stop-color="#f28620"/>
      <stop offset=".91" stop-color="#ea7912"/>
      <stop offset="1" stop-color="#e26e04"/>
    </linearGradient>
  </defs>
  <g class="cls-95">
    <g id="Layer_2" data-name="Layer 2">
      <g id="Layer_1-2" data-name="Layer 1">
        <g>
          <g>
            <g class="cls-113">
              <path class="cls-44" d="M34.16,143.78c-13.76,53.12,34.72,204.71,53.37,240.1,6.8,12.91,124.8-7.52,120.88-16.08-16.14-35.22-46.12-164.33-41.26-215.51.68-7.2-28.52-4.38-70.39-6.43-25.95-1.27-61.45-6.52-62.6-2.08Z"/>
              <path class="cls-72" d="M35.92,146.62c-11.42,54.45,32.99,198.21,51.75,236.05,5.9,11.91,123.15-6.81,119.34-15.58-15.43-35.32-45.53-158-41.52-213.2.56-7.6-29.5-3.98-68.29-5.92-26.74-1.36-60.33-5.98-61.28-1.35Z"/>
              <path class="cls-27" d="M37.67,149.47c-8.92,55.8,31.34,191.65,50.14,232,5.07,10.88,121.5-6.1,117.8-15.08-14.73-35.41-44.93-151.68-41.77-210.89.45-8-30.48-3.59-66.2-5.41-27.52-1.45-59.19-5.44-59.97-.62Z"/>
              <path class="cls-10" d="M39.42,152.32c-6.56,57.12,29.81,185.02,48.52,227.95,4.28,9.82,119.85-5.39,116.26-14.57-14.02-35.5-44.33-145.35-42.02-208.58.33-8.4-31.46-3.19-64.1-4.91-28.3-1.54-58.07-4.91-58.65.11Z"/>
              <path class="cls-76" d="M41.17,155.17c-4.24,58.44,28.45,178.31,46.9,223.9,3.54,8.74,118.19-4.68,114.72-14.07-13.31-35.6-43.74-139.03-42.28-206.27.21-8.79-32.44-2.79-62.01-4.4-29.08-1.64-56.96-4.37-57.33.84Z"/>
              <path class="cls-88" d="M42.92,158.02c-2.04,59.75,27.36,171.51,45.29,219.84,2.84,7.65,116.54-3.97,113.17-13.57-12.6-35.69-43.14-132.7-42.53-203.96.09-9.19-33.41-2.39-59.91-3.89-29.87-1.73-55.85-3.84-56.02,1.57Z"/>
              <path class="cls-144" d="M44.68,160.87c.3,61.08,26.69,164.57,43.67,215.79,2.17,6.55,114.89-3.27,111.63-13.06-11.89-35.79-42.54-126.38-42.78-201.65-.03-9.59-34.39-2-57.82-3.39-30.65-1.82-54.73-3.3-54.7,2.3Z"/>
            </g>
            <g>
              <g>
                <path class="cls-79" d="M160.12,167.61c1.26,50.82,20.85,138.63,40.16,193.6.75,2.14-1.33,4.58-4.4,5.09l-95.16,13.02c-2.31.38-4.88-.31-5.57-1.95-13.76-32.77-48.39-157.63-47.82-215.57.03-3.42,3.28-5.67,6.84-5.46,37.55,2.23,72.59,3.1,100,3.84,3.92.11,5.85,3.45,5.95,7.42Z"/>
                <path class="cls-140" d="M159.56,168.67c1.05,51.16,20.39,136.23,38.71,190.06.69,2.01-1.23,4.29-4.1,4.76l-93.82,12.68c-2.15.35-4.55-.28-5.19-1.81-14-33.48-47.25-154.08-46.47-210.98.04-3.17,3.04-5.26,6.34-5.08,37.1,1.9,71.91,2.6,98.99,3.47,3.65.11,5.44,3.22,5.53,6.91Z"/>
                <path class="cls-21" d="M159,169.73c.85,51.5,19.82,133.87,37.27,186.52.62,1.88-1.13,4-3.81,4.44l-92.47,12.33c-1.99.33-4.21-.26-4.81-1.67-14.25-34.18-46.11-150.53-45.11-206.39.05-2.92,2.79-4.85,5.84-4.71,36.65,1.67,71.24,2.09,97.99,3.1,3.37.12,5.04,3,5.11,6.4Z"/>
                <path class="cls-84" d="M158.44,170.8c.65,51.83,19.34,131.47,35.82,182.97.56,1.75-1.03,3.7-3.51,4.11l-91.13,11.99c-1.83.3-3.88-.23-4.43-1.54-14.5-34.88-44.97-146.99-43.75-201.81.05-2.67,2.55-4.44,5.33-4.34,36.2,1.37,70.56,1.59,96.98,2.73,3.1.12,4.64,2.77,4.69,5.89Z"/>
                <path class="cls-67" d="M157.87,171.86c.44,52.17,18.89,129.07,34.38,179.43.5,1.62-.93,3.41-3.22,3.78l-89.78,11.64c-1.67.27-3.55-.2-4.05-1.4-14.74-35.58-43.83-143.44-42.4-197.22.06-2.42,2.3-4.04,4.83-3.97,35.75,1.04,69.89,1.09,95.97,2.35,2.82.13,4.23,2.54,4.27,5.38Z"/>
                <path class="cls-86" d="M157.31,172.92c.24,52.5,18.58,126.63,32.94,175.89.44,1.48-.84,3.12-2.93,3.45l-88.44,11.29c-1.51.24-3.22-.18-3.67-1.26-14.99-36.28-42.69-139.9-41.04-192.63.06-2.17,2.06-3.64,4.33-3.59,35.3.68,69.22.59,94.97,1.98,2.55.13,3.83,2.32,3.85,4.87Z"/>
                <path class="cls-123" d="M156.75,173.98c.04,52.84,18.12,124.23,31.49,172.34.38,1.35-.74,2.82-2.63,3.13l-87.09,10.95c-1.35.22-2.89-.15-3.29-1.12-15.23-36.99-41.55-136.35-39.69-188.04.07-1.92,1.81-3.24,3.83-3.22,34.85.29,68.54.09,93.96,1.61,2.27.14,3.43,2.09,3.43,4.36Z"/>
              </g>
              <g>
                <path class="cls-29" d="M55.14,185.62c46.99,37.11,81.98,21.06,102.87-.85,0,0,1.44,27.44-34.95,34.54-36.63,7.14-66.45-21.26-67.92-33.69Z"/>
                <path class="cls-39" d="M55.17,185.72c46.79,36.97,82.11,21.18,102.85-.95,0,0-.23,26.32-34.93,33.11-36.24,7.09-66.69-21.8-67.92-32.16Z"/>
                <path class="cls-23" d="M55.19,185.82c46.59,36.83,82.24,21.3,102.82-1.05,0,0-1.9,25.2-34.91,31.68-35.85,7.04-66.93-22.34-67.91-30.63Z"/>
                <path class="cls-11" d="M55.22,185.92c46.38,36.7,82.36,21.43,102.8-1.14,0,0-3.57,24.08-34.89,30.25-35.46,6.99-67.17-22.89-67.91-29.11Z"/>
                <path class="cls-32" d="M55.24,186.02c46.18,36.56,82.49,21.55,102.77-1.24,0,0-5.23,22.97-34.87,28.82-35.07,6.94-67.41-23.43-67.9-27.58Z"/>
                <path class="cls-33" d="M55.27,186.11c45.98,36.42,82.62,21.67,102.75-1.34,0,0-6.9,21.85-34.85,27.39-34.67,6.88-67.65-23.98-67.9-26.05Z"/>
                <path class="cls-40" d="M55.29,186.21c45.77,36.28,82.75,21.79,102.72-1.44,0,0-8.57,20.73-34.83,25.96-34.28,6.83-67.89-24.52-67.89-24.52Z"/>
              </g>
              <g>
                <path class="cls-29" d="M106.35,215.42c7.75,11.21,19.61,8.9,25.51,1.35,0,0,.15,12.96-10.53,13.48-15.26.74-14.98-14.83-14.98-14.83Z"/>
                <path class="cls-39" d="M106.41,215.46c7.46,11.46,19.8,9.12,25.45,1.35,0,0-.17,12.51-10.5,13.1-15.08.89-14.95-14.45-14.95-14.45Z"/>
                <path class="cls-23" d="M106.47,215.49c7.17,11.71,20,9.34,25.4,1.34,0,0-.49,12.05-10.48,12.73-14.89,1.04-14.92-14.07-14.92-14.07Z"/>
                <path class="cls-11" d="M106.53,215.52c6.88,11.97,20.2,9.56,25.34,1.34,0,0-.8,11.6-10.46,12.36-14.7,1.19-14.89-13.7-14.89-13.7Z"/>
                <path class="cls-32" d="M106.59,215.56c6.59,12.22,20.39,9.77,25.29,1.33,0,0-1.12,11.14-10.43,11.98-14.51,1.34-14.85-13.32-14.85-13.32Z"/>
                <path class="cls-33" d="M106.65,215.59c6.31,12.47,20.59,9.99,25.23,1.33,0,0-1.44,10.69-10.41,11.61-14.33,1.49-14.82-12.94-14.82-12.94Z"/>
                <path class="cls-40" d="M106.71,215.63c6.02,12.72,20.79,10.21,25.18,1.32,0,0-1.76,10.23-10.39,11.24-14.14,1.65-14.79-12.56-14.79-12.56Z"/>
              </g>
              <path class="cls-117" d="M74.47,199.4c13.31,6.92,26.73,9.85,39.82,8.86,19.63-1.49,32.93-9.04,45.15-24.94.22-.29.18-1.55-.1-1.77-.29-.21-.7-.16-.93.13-9.15,11.91-20.96,23.57-44.27,25.3-18.88,1.4-38.67-5.65-57.85-21.5-.36-.32-.92-.33-1.23-.05-.32.27-.27.75.1,1.05,6.42,5.28,12.88,9.59,19.32,12.93Z"/>
              <path class="cls-101" d="M111.98,203.19c-6.19,3.83-7.71,12.1-3.49,18.27,4.08,5.97,12.03,7.7,17.84,4.05,5.8-3.64,7.57-11.43,3.85-17.58-3.84-6.35-12.03-8.57-18.2-4.75ZM123.68,209.45l.97,9.69-9.58.74-1.16-9.79,9.77-.64Z"/>
              <path class="cls-118" d="M112.61,204.17c-5.66,3.51-7.06,11.07-3.22,16.72,3.73,5.49,11.03,7.1,16.37,3.74,5.33-3.34,6.94-10.5,3.52-16.14-3.53-5.81-11.03-7.82-16.68-4.32ZM123.2,210.04l.87,8.61-8.52.65-1.02-8.7,8.67-.57Z"/>
              <polygon class="cls-30" points="113.94 210.11 115.09 219.85 124.62 219.12 123.66 209.48 113.94 210.11"/>
            </g>
          </g>
          <g>
            <g>
              <path class="cls-79" d="M102.14,281.27c8.45,52.06,31.18,128.58,56.91,178.33,1.3,2.51.35,5.49-2.48,6.44l-68.59,20.84c-2.03.69-4.74.15-5.78-1.66C57.11,441.22,12.34,350.77.15,295.83c-.72-3.24,1.28-5.93,4.18-6.34,31.02-4.38,67-10.1,90.55-14.35,3.41-.62,6.63,2.26,7.26,6.13Z"/>
              <path class="cls-49" d="M101.47,281.71c8.59,51.6,31.27,127.57,56.53,177.09,1.24,2.43.34,5.29-2.38,6.2l-67.71,20.72c-1.95.66-4.54.15-5.55-1.59C57.37,441.13,13,350.58.79,296.2c-.69-3.11,1.23-5.68,4-6.08,30.68-4.47,66.38-10.17,89.71-14.3,3.27-.58,6.35,2.17,6.97,5.89Z"/>
              <path class="cls-120" d="M100.81,282.15c8.73,51.15,31.36,126.56,56.15,175.85,1.19,2.34.34,5.08-2.28,5.97l-66.83,20.59c-1.87.63-4.34.14-5.32-1.52C57.73,441,13.65,350.4,1.44,296.57c-.67-2.97,1.17-5.44,3.82-5.83,30.34-4.56,65.76-10.24,88.87-14.25,3.14-.55,6.08,2.09,6.68,5.65Z"/>
              <path class="cls-50" d="M100.14,282.59c8.87,50.7,31.33,125.61,55.77,174.61,1.12,2.26.34,4.88-2.18,5.73l-65.95,20.47c-1.79.6-4.14.13-5.09-1.46C58.03,440.89,14.31,350.21,2.08,296.95c-.64-2.84,1.11-5.19,3.64-5.58,30-4.59,65.15-10.3,88.03-14.19,3-.52,5.8,2.01,6.38,5.41Z"/>
              <path class="cls-4" d="M99.48,283.02c8.88,50.26,31.39,124.61,55.39,173.37,1.07,2.17.33,4.68-2.07,5.49l-65.07,20.34c-1.71.58-3.94.12-4.87-1.39C58.32,440.79,14.96,350.03,2.73,297.32c-.62-2.7,1.06-4.95,3.47-5.33,29.66-4.67,64.53-10.37,87.19-14.14,2.86-.49,5.52,1.93,6.09,5.17Z"/>
              <path class="cls-108" d="M98.81,283.46c9.01,49.81,31.46,123.6,55.01,172.13,1.01,2.08.33,4.48-1.97,5.26l-64.19,20.22c-1.63.55-3.75.11-4.64-1.32C58.6,440.69,15.62,349.84,3.37,297.69c-.59-2.57,1-4.7,3.29-5.07,29.32-4.75,63.92-10.39,86.35-14.08,2.73-.45,5.24,1.84,5.8,4.93Z"/>
              <path class="cls-3" d="M98.15,283.9c9.14,49.36,31.54,122.6,54.63,170.89.95,1.99.32,4.28-1.87,5.02l-63.32,20.1c-1.55.52-3.55.1-4.41-1.25-24.3-38.06-66.9-129-79.16-180.59-.57-2.43.94-4.46,3.11-4.82,28.98-4.84,63.3-10.45,85.52-14.03,2.59-.42,4.96,1.76,5.5,4.68Z"/>
              <path class="cls-138" d="M97.48,284.34c9.28,48.9,31.64,121.58,54.25,169.65.9,1.91.32,4.08-1.77,4.78l-62.44,19.97c-1.47.49-3.35.09-4.18-1.18-24.2-37.05-66.41-128.09-78.67-179.12-.54-2.3.89-4.22,2.93-4.57,28.64-4.94,62.68-10.52,84.68-13.97,2.46-.39,4.69,1.68,5.21,4.44Z"/>
              <path class="cls-115" d="M96.81,284.78c9.43,48.45,31.74,120.56,53.87,168.41.84,1.82.32,3.88-1.67,4.55l-61.56,19.85c-1.39.47-3.16.08-3.96-1.11-24.12-36.03-65.91-127.18-78.19-177.66-.52-2.16.83-3.98,2.75-4.32,28.3-5.04,62.06-10.59,83.84-13.92,2.32-.35,4.41,1.6,4.92,4.2Z"/>
              <path class="cls-146" d="M96.15,285.22c9.59,47.99,31.86,119.54,53.49,167.17.79,1.73.31,3.68-1.57,4.31l-60.68,19.73c-1.31.44-2.96.07-3.73-1.04-24.05-35-65.42-126.27-77.71-176.19-.49-2.03.77-3.73,2.57-4.07,27.95-5.16,61.43-10.7,83-13.87,2.18-.33,4.14,1.51,4.63,3.96Z"/>
              <path class="cls-121" d="M95.48,285.65c9.84,47.51,32.07,118.47,53.11,165.93.73,1.64.31,3.47-1.47,4.07l-59.8,19.6c-1.23.41-2.76.07-3.5-.98-24-33.95-64.92-125.36-77.22-174.72-.47-1.89.72-3.49,2.4-3.81,27.6-5.32,60.81-10.77,82.16-13.81,2.05-.3,3.87,1.43,4.33,3.72Z"/>
              <path class="cls-112" d="M94.82,286.09c9.98,47.06,32.16,117.46,52.73,164.69.68,1.55.31,3.27-1.37,3.84l-58.92,19.48c-1.15.38-2.57.06-3.28-.91-23.96-32.89-64.43-124.46-76.74-173.26-.44-1.76.66-3.25,2.22-3.56,27.25-5.41,60.2-10.84,81.32-13.76,1.91-.26,3.59,1.34,4.04,3.47Z"/>
            </g>
            <g>
              <path class="cls-29" d="M12.41,313.38c40.87,33.88,76.41,9,88.94-17.96,0,0,5.76,33.47-28.6,43.64-28.5,8.44-60.34-25.68-60.34-25.68Z"/>
              <path class="cls-34" d="M12.41,313.38c40.87,33.88,76.41,9,88.94-17.96,0,0,2.63,32.3-28.9,42.18-28.34,8.88-60.04-24.22-60.04-24.22Z"/>
              <path class="cls-26" d="M12.41,313.38c40.87,33.88,76.41,9,88.94-17.96,0,0-.5,31.18-29.2,40.72-28.17,9.36-59.75-22.76-59.75-22.76Z"/>
              <path class="cls-9" d="M12.41,313.38c40.87,33.88,76.41,9,88.94-17.96,0,0-3.61,30.12-29.49,39.26-27.98,9.88-59.45-21.3-59.45-21.3Z"/>
              <path class="cls-35" d="M12.41,313.38c40.87,33.88,76.41,9,88.94-17.96,0,0-6.7,29.11-29.79,37.8-27.79,10.45-59.15-19.84-59.15-19.84Z"/>
              <path class="cls-36" d="M12.41,313.38c40.87,33.88,76.41,9,88.94-17.96,0,0-9.77,28.15-30.09,36.34-27.56,11.1-58.85-18.38-58.85-18.38Z"/>
              <path class="cls-31" d="M12.41,313.38c40.87,33.88,76.41,9,88.94-17.96,0,0-12.81,27.25-30.39,34.88-27.28,11.84-58.55-16.92-58.55-16.92Z"/>
            </g>
            <g>
              <path class="cls-29" d="M57.91,336.73c10.02,9.9,20.72,5.32,24.41-3.64,0,0,3.75,13.49-6.55,15.97-14.2,3.42-17.86-12.32-17.86-12.32Z"/>
              <path class="cls-39" d="M57.97,336.75c9.82,10.21,20.98,5.51,24.36-3.64,0,0,3.31,13.07-6.63,15.58-13.99,3.55-17.73-11.94-17.73-11.94Z"/>
              <path class="cls-23" d="M58.03,336.77c9.61,10.52,21.23,5.7,24.31-3.63,0,0,2.87,12.65-6.7,15.19-13.77,3.68-17.6-11.56-17.6-11.56Z"/>
              <path class="cls-11" d="M58.1,336.79c9.41,10.83,21.49,5.9,24.26-3.62,0,0,2.43,12.23-6.78,14.8-13.55,3.81-17.47-11.17-17.47-11.17Z"/>
              <path class="cls-32" d="M58.16,336.82c9.2,11.14,21.75,6.09,24.21-3.62,0,0,1.99,11.82-6.86,14.41-13.34,3.94-17.35-10.79-17.35-10.79Z"/>
              <path class="cls-33" d="M58.22,336.84c9,11.45,22,6.28,24.16-3.61,0,0,1.54,11.4-6.94,14.01-13.12,4.07-17.22-10.4-17.22-10.4Z"/>
              <path class="cls-40" d="M58.29,336.86c8.8,11.76,22.26,6.48,24.11-3.6,0,0,1.1,10.98-7.02,13.62-12.91,4.2-17.09-10.02-17.09-10.02Z"/>
            </g>
            <path class="cls-128" d="M27.75,324.4c11.1,5.73,22.16,7.75,32.75,5.95,16.6-2.84,32.53-15.81,40.78-33.53.15-.33.02-.75-.29-.94-.31-.18-.69-.08-.84.24-6.16,13.28-20.19,29.57-39.99,32.95-15.14,2.58-31.4-2.92-47.41-16.2-.3-.27-.69-.22-.87.05-.19.27-.1.7.2.94,5.23,4.33,10.47,7.84,15.67,10.53Z"/>
            <path class="cls-92" d="M59.98,323.45c-4.66,5.06-3.99,13.55,1.4,18.94,5.32,5.33,13.31,5.69,17.94.83,4.67-4.9,4.25-13.32-1.04-18.85-5.36-5.6-13.6-6.02-18.3-.92ZM72.47,327.27l3.51,9.68-8.89,2.6-3.59-9.64,8.98-2.64Z"/>
            <path class="cls-142" d="M60.8,324.29c-4.27,4.63-3.67,12.41,1.27,17.36,4.88,4.89,12.21,5.23,16.47.76,4.28-4.5,3.89-12.23-.97-17.29-4.91-5.12-12.46-5.51-16.77-.84ZM72.17,327.97l3.12,8.6-7.9,2.31-3.19-8.57,7.97-2.34Z"/>
            <g class="cls-37">
              <path class="cls-124" d="M66.62,340.63l-4.24-11.34,10.57-3.11,4.11,11.4-10.45,3.05ZM64.67,330.58l2.92,7.84,7.24-2.12-2.86-7.87-7.3,2.15Z"/>
            </g>
          </g>
          <g>
            <g>
              <path class="cls-93" d="M188.69,414.89c14.32,45.12,46.98,113.29,77.2,154.53,1.53,2.09,1.08,4.99-1.36,6.35l-60.73,31.7c-1.83,1.02-4.45,1.02-5.67-.51-29.45-36.93-85.13-116.25-103.19-164.81-1.06-2.85.56-5.58,3.28-6.36,28.96-8.33,61.89-18.41,83.06-25.35,3.04-1,6.35,1.11,7.41,4.45Z"/>
              <path class="cls-46" d="M188.79,416.6c14.33,44.57,45.01,109.54,74.75,150.61,1.47,2.02,1.04,4.8-1.3,6.11l-59.77,31.3c-1.75.98-4.27.98-5.44-.48-28.97-36.06-82.62-112.68-100.25-160.75-1.01-2.73.53-5.34,3.14-6.1,28.55-8.35,60.85-18.15,81.78-24.96,2.92-.95,6.07,1.07,7.1,4.26Z"/>
              <path class="cls-63" d="M188.88,418.31c14.34,44.01,43.04,105.78,72.3,146.69,1.4,1.94,1.01,4.61-1.24,5.87l-58.82,30.89c-1.68.94-4.09.94-5.21-.46-28.5-35.18-80.11-109.11-97.31-156.68-.95-2.6.5-5.1,2.99-5.83,28.14-8.38,59.8-17.9,80.5-24.56,2.79-.9,5.8,1.03,6.79,4.08Z"/>
              <path class="cls-52" d="M188.98,420.02c14.35,43.45,40.96,102.1,69.85,142.76,1.33,1.88.98,4.42-1.19,5.64l-57.86,30.49c-1.6.9-3.9.9-4.99-.44-28.02-34.31-77.49-105.58-94.36-152.61-.89-2.48.48-4.86,2.84-5.57,27.76-8.34,58.76-17.65,79.22-24.17,2.67-.86,5.53.99,6.48,3.89Z"/>
              <path class="cls-5" d="M189.07,421.73c14.26,42.93,38.97,98.35,67.4,138.84,1.27,1.8.95,4.24-1.13,5.4l-56.91,30.09c-1.53.86-3.72.85-4.76-.42-27.54-33.43-74.96-102.01-91.42-148.54-.84-2.36.45-4.61,2.7-5.3,27.36-8.35,57.71-17.39,77.95-23.77,2.54-.81,5.25.95,6.17,3.71Z"/>
              <path class="cls-110" d="M189.17,423.44c14.26,42.38,36.98,94.61,64.95,134.92,1.2,1.73.92,4.05-1.07,5.16l-55.95,29.68c-1.46.81-3.54.81-4.53-.39-27.07-32.56-72.43-98.45-88.47-144.48-.78-2.24.43-4.38,2.55-5.03,26.95-8.37,56.67-17.14,76.67-23.38,2.42-.76,4.98.91,5.86,3.52Z"/>
              <path class="cls-73" d="M189.26,425.15c14.26,41.83,35,90.86,62.5,131,1.14,1.66.88,3.86-1.01,4.92l-55,29.28c-1.38.77-3.35.77-4.31-.37-26.59-31.68-69.91-94.88-85.53-140.41-.73-2.12.4-4.14,2.4-4.77,26.55-8.38,55.64-16.85,75.39-22.98,2.3-.71,4.71.87,5.55,3.34Z"/>
              <path class="cls-143" d="M189.36,426.85c14.28,41.27,33.03,87.1,60.05,127.08,1.07,1.59.85,3.68-.95,4.68l-54.04,28.87c-1.31.73-3.17.73-4.08-.35-26.11-30.8-67.4-91.3-82.59-136.34-.67-2,.37-3.9,2.26-4.5,26.15-8.41,54.59-16.59,74.11-22.59,2.17-.67,4.44.82,5.24,3.15Z"/>
              <path class="cls-134" d="M189.45,428.56c14.3,40.71,31.06,83.33,57.6,123.16,1.01,1.52.82,3.49-.89,4.44l-53.09,28.47c-1.24.69-2.99.69-3.85-.33-25.64-29.93-64.91-87.72-79.64-132.28-.62-1.87.35-3.66,2.11-4.24,25.74-8.44,53.54-16.38,72.83-22.19,2.05-.63,4.16.78,4.93,2.97Z"/>
              <path class="cls-97" d="M189.55,430.27c14.33,40.15,29.12,79.56,55.15,119.24.95,1.44.79,3.3-.83,4.2l-52.14,28.07c-1.16.65-2.8.65-3.62-.31-25.16-29.05-62.43-84.14-76.7-128.21-.57-1.75.32-3.42,1.97-3.97,25.33-8.48,52.49-16.12,71.55-21.8,1.92-.58,3.89.74,4.62,2.78Z"/>
              <path class="cls-85" d="M189.64,431.98c14.43,39.56,27.25,75.73,52.7,115.32.89,1.37.76,3.12-.77,3.96l-51.18,27.66c-1.09.6-2.62.61-3.4-.28-24.68-28.18-60.04-80.53-73.76-124.14-.52-1.63.29-3.19,1.82-3.71,24.9-8.58,51.45-15.87,70.27-21.41,1.8-.53,3.63.7,4.31,2.6Z"/>
              <path class="cls-68" d="M189.74,433.69c14.44,39,25.27,71.98,50.25,111.4.82,1.3.72,2.93-.71,3.72l-50.23,27.26c-1.02.56-2.44.56-3.17-.26-24.21-27.3-57.53-76.96-70.81-120.08-.46-1.51.26-2.95,1.67-3.44,24.49-8.6,50.4-15.62,69-21.01,1.67-.49,3.35.66,4,2.41Z"/>
            </g>
            <g>
              <path class="cls-29" d="M108.71,456.37c42.82,24.79,72.9-3.02,81.04-28.84,0,0,9.51,29.02-20.97,43.23-25.73,12-60.06-14.39-60.06-14.39Z"/>
              <path class="cls-39" d="M108.71,456.37c42.82,24.79,72.9-3.02,81.04-28.84,0,0,6.48,28.42-21.43,41.96-25.52,12.37-59.6-13.11-59.6-13.11Z"/>
              <path class="cls-23" d="M108.71,456.37c42.82,24.79,72.9-3.02,81.04-28.84,0,0,3.47,27.88-21.89,40.68s-59.14-11.83-59.14-11.83Z"/>
              <path class="cls-11" d="M108.71,456.37c42.82,24.79,72.9-3.02,81.04-28.84,0,0,.47,27.37-22.35,39.4-25.07,13.21-58.69-10.56-58.69-10.56Z"/>
              <path class="cls-32" d="M108.71,456.37c42.82,24.79,72.9-3.02,81.04-28.84,0,0-2.5,26.92-22.81,38.12-24.81,13.69-58.23-9.28-58.23-9.28Z"/>
              <path class="cls-33" d="M108.71,456.37c42.82,24.79,72.9-3.02,81.04-28.84,0,0-5.45,26.5-23.27,36.85-24.52,14.23-57.77-8-57.77-8Z"/>
              <path class="cls-40" d="M108.71,456.37c42.82,24.79,72.9-3.02,81.04-28.84,0,0-8.36,26.13-23.73,35.57-24.17,14.85-57.31-6.72-57.31-6.72Z"/>
            </g>
            <g>
              <path class="cls-29" d="M152.84,468.89c10.25,7.93,19.91,2.57,22.6-5.98,0,0,4.64,11.85-4.78,15.26-13.08,4.74-17.82-9.28-17.82-9.28Z"/>
              <path class="cls-39" d="M152.91,468.9c10.09,8.24,20.16,2.71,22.55-5.97,0,0,4.2,11.52-4.88,14.91-12.86,4.83-17.67-8.94-17.67-8.94Z"/>
              <path class="cls-23" d="M152.97,468.92c9.92,8.55,20.42,2.86,22.5-5.96,0,0,3.75,11.19-4.99,14.56-12.65,4.92-17.51-8.6-17.51-8.6Z"/>
              <path class="cls-11" d="M153.03,468.93c9.75,8.86,20.67,3.01,22.45-5.95,0,0,3.3,10.86-5.09,14.22-12.43,5.01-17.36-8.27-17.36-8.27Z"/>
              <path class="cls-32" d="M153.09,468.94c9.59,9.16,20.93,3.16,22.41-5.94,0,0,2.86,10.52-5.2,13.87-12.22,5.11-17.2-7.93-17.2-7.93Z"/>
              <path class="cls-33" d="M153.15,468.96c9.42,9.47,21.18,3.3,22.36-5.93,0,0,2.41,10.19-5.31,13.52-12,5.2-17.05-7.59-17.05-7.59Z"/>
              <path class="cls-40" d="M153.21,468.97c9.26,9.78,21.44,3.45,22.31-5.92,0,0,1.96,9.86-5.41,13.17-11.79,5.29-16.9-7.26-16.9-7.26Z"/>
            </g>
            <path class="cls-127" d="M124.63,464.15c11.21,3.56,21.9,3.75,31.62.54,15.14-5.01,28.26-18.96,33.61-35.91.1-.31-.07-.67-.38-.8-.31-.12-.64.02-.74.33-3.99,12.68-14.92,29.3-32.96,35.27-13.92,4.6-29.98,2.02-46.8-7.72-.31-.2-.68-.1-.83.18-.15.28-.01.65.3.83,5.5,3.18,10.91,5.61,16.18,7.28Z"/>
            <path class="cls-55" d="M153.72,456.56c-3.98,5.11-2.66,12.79,2.86,17.12,5.45,4.28,12.99,3.71,16.92-1.23,3.95-4.97,2.84-12.57-2.56-17.01-5.47-4.5-13.22-4.01-17.22,1.12ZM165.75,458.69l4.09,8.42-8.12,3.35-4.17-8.4,8.2-3.37Z"/>
            <path class="cls-91" d="M154.56,457.24c-3.65,4.68-2.44,11.72,2.61,15.7,5,3.93,11.92,3.41,15.52-1.13,3.62-4.56,2.6-11.53-2.36-15.6-5.02-4.12-12.12-3.67-15.78,1.03ZM165.53,459.35l3.64,7.48-7.22,2.98-3.7-7.46,7.29-2.99Z"/>
            <g class="cls-37">
              <path class="cls-124" d="M161.37,471.49l-4.92-9.88,9.66-3.96,4.8,9.91-9.55,3.93ZM158.7,462.54l3.39,6.83,6.61-2.73-3.33-6.85-6.67,2.74Z"/>
            </g>
          </g>
          <g>
            <g>
              <path class="cls-79" d="M243.88,297.81c5.38,54.54,23.97,135.38,47.43,188.64,1.19,2.69,0,5.71-2.99,6.52l-72.49,17.15c-2.15.58-4.92-.15-5.88-2.1-23.17-47.26-63.72-143.98-72.79-201.75-.54-3.41,1.72-6.06,4.75-6.3,32.46-2.52,70.14-6.12,94.84-9,3.57-.42,6.73,2.77,7.13,6.83Z"/>
              <path class="cls-58" d="M243.23,298.41c5.54,54.02,24.1,134.18,47.06,187.12,1.13,2.6.01,5.5-2.87,6.27l-71.49,17.06c-2.06.56-4.72-.14-5.65-2.01-22.85-46.19-62.82-142.83-71.93-199.96-.52-3.26,1.64-5.81,4.54-6.04,32.07-2.64,69.06-6.23,93.49-8.99,3.43-.39,6.44,2.67,6.84,6.56Z"/>
              <path class="cls-51" d="M242.58,299.02c5.71,53.49,24.23,132.99,46.69,185.59,1.08,2.5.02,5.29-2.74,6.03l-70.49,16.97c-1.98.53-4.52-.13-5.41-1.92-22.53-45.12-61.93-141.69-71.07-198.18-.5-3.12,1.57-5.56,4.34-5.79,31.69-2.75,67.97-6.34,92.15-8.99,3.28-.37,6.16,2.56,6.55,6.28Z"/>
              <path class="cls-137" d="M241.94,299.63c5.87,52.97,24.23,131.85,46.32,184.07,1.02,2.41.03,5.07-2.62,5.79l-69.5,16.88c-1.89.51-4.32-.12-5.18-1.84-22.22-44.06-61.03-140.54-70.21-196.39-.48-2.98,1.49-5.3,4.13-5.54,31.31-2.8,66.89-6.44,90.8-8.98,3.14-.34,5.87,2.45,6.25,6.01Z"/>
              <path class="cls-16" d="M241.29,300.24c5.91,52.46,24.33,130.66,45.96,182.55.96,2.31.04,4.86-2.5,5.54l-68.5,16.79c-1.8.49-4.11-.12-4.94-1.75-21.9-42.99-60.13-139.4-69.35-194.61-.46-2.83,1.42-5.05,3.93-5.28,30.93-2.9,65.81-6.55,89.45-8.98,2.99-.32,5.58,2.35,5.96,5.74Z"/>
              <path class="cls-45" d="M240.64,300.85c6.06,51.94,24.44,129.47,45.59,181.02.91,2.21.05,4.65-2.38,5.3l-67.51,16.7c-1.72.46-3.91-.11-4.7-1.66-21.58-41.92-59.24-138.25-68.49-192.82-.45-2.69,1.34-4.79,3.72-5.03,30.55-3,64.73-6.61,88.1-8.97,2.85-.29,5.29,2.24,5.67,5.46Z"/>
              <path class="cls-82" d="M240,301.45c6.21,51.42,24.56,128.28,45.22,179.5.85,2.12.06,4.43-2.26,5.06l-66.51,16.61c-1.63.44-3.71-.1-4.47-1.58-21.27-40.85-58.34-137.11-67.63-191.03-.43-2.54,1.26-4.54,3.52-4.77,30.16-3.11,63.64-6.71,86.75-8.97,2.7-.26,5.01,2.14,5.37,5.19Z"/>
              <path class="cls-129" d="M239.35,302.06c6.38,50.9,24.69,127.08,44.85,177.98.8,2.02.07,4.22-2.13,4.81l-65.52,16.52c-1.54.41-3.51-.1-4.23-1.49-20.95-39.78-57.45-135.97-66.77-189.25-.41-2.4,1.19-4.29,3.31-4.52,29.78-3.23,62.56-6.82,85.41-8.96,2.55-.24,4.72,2.03,5.08,4.91Z"/>
              <path class="cls-17" d="M238.7,302.67c6.56,50.37,24.83,125.88,44.49,176.45.75,1.92.08,4.01-2.01,4.57l-64.52,16.42c-1.46.39-3.3-.09-4-1.4-20.63-38.71-56.55-134.82-65.91-187.46-.39-2.26,1.11-4.04,3.11-4.26,29.39-3.35,61.47-6.93,84.06-8.95,2.41-.22,4.44,1.93,4.79,4.64Z"/>
              <path class="cls-62" d="M238.06,303.28c6.75,49.85,24.99,124.67,44.12,174.93.7,1.83.08,3.8-1.89,4.32l-63.53,16.33c-1.37.37-3.1-.08-3.76-1.31-20.31-37.64-55.66-133.68-65.05-185.68-.38-2.11,1.04-3.78,2.91-4.01,29.01-3.49,60.38-7.09,82.71-8.95,2.26-.2,4.15,1.82,4.5,4.36Z"/>
              <path class="cls-133" d="M237.41,303.89c7.02,49.31,25.24,123.43,43.75,173.4.65,1.73.09,3.58-1.77,4.08l-62.53,16.24c-1.28.34-2.9-.07-3.53-1.23-20-36.57-54.76-132.53-64.19-183.89-.36-1.97.96-3.54,2.7-3.76,28.62-3.67,59.3-7.2,81.36-8.94,2.12-.17,3.87,1.71,4.2,4.09Z"/>
              <path class="cls-83" d="M236.76,304.5c7.19,48.79,25.37,122.24,43.38,171.88.59,1.63.1,3.37-1.65,3.84l-61.53,16.15c-1.2.32-2.7-.07-3.29-1.14-19.68-35.5-53.87-131.39-63.33-182.11-.34-1.83.88-3.28,2.5-3.5,28.23-3.79,58.22-7.3,80.01-8.94,1.97-.15,3.59,1.61,3.91,3.81Z"/>
            </g>
            <g>
              <path class="cls-29" d="M148.74,325.27c40.18,37.8,78.66,14.3,93.41-12.84,0,0,3.8,35.08-32.5,43.4-30.11,6.9-60.91-30.56-60.91-30.56Z"/>
              <path class="cls-39" d="M148.74,325.27c40.18,37.8,78.66,14.3,93.41-12.84,0,0,.62,33.67-32.71,41.87-29.97,7.37-60.7-29.03-60.7-29.03Z"/>
              <path class="cls-23" d="M148.74,325.27c40.18,37.8,78.66,14.3,93.41-12.84,0,0-2.54,32.31-32.93,40.33-29.82,7.88-60.48-27.49-60.48-27.49Z"/>
              <path class="cls-11" d="M148.74,325.27c40.18,37.8,78.66,14.3,93.41-12.84,0,0-5.7,31-33.14,38.8-29.66,8.43-60.27-25.96-60.27-25.96Z"/>
              <path class="cls-32" d="M148.74,325.27c40.18,37.8,78.66,14.3,93.41-12.84,0,0-8.84,29.76-33.35,37.26-29.5,9.03-60.05-24.42-60.05-24.42Z"/>
              <path class="cls-33" d="M148.74,325.27c40.18,37.8,78.66,14.3,93.41-12.84,0,0-11.96,28.56-33.57,35.73-29.3,9.72-59.84-22.89-59.84-22.89Z"/>
              <path class="cls-40" d="M148.74,325.27c40.18,37.8,78.66,14.3,93.41-12.84,0,0-15.06,27.43-33.78,34.2-29.06,10.51-59.62-21.35-59.62-21.35Z"/>
            </g>
            <g>
              <path class="cls-29" d="M194.53,352.13c10.09,10.6,21.35,6.2,25.47-2.99,0,0,3.46,14.13-7.32,16.37-14.86,3.1-18.15-13.38-18.15-13.38Z"/>
              <path class="cls-39" d="M194.59,352.15c9.87,10.92,21.61,6.4,25.42-2.99,0,0,3.01,13.68-7.39,15.96-14.64,3.24-18.03-12.98-18.03-12.98Z"/>
              <path class="cls-23" d="M194.66,352.18c9.64,11.23,21.87,6.61,25.36-2.98,0,0,2.57,13.23-7.46,15.56-14.42,3.38-17.91-12.57-17.91-12.57Z"/>
              <path class="cls-11" d="M194.72,352.21c9.42,11.55,22.13,6.82,25.31-2.98,0,0,2.12,12.79-7.52,15.15-14.2,3.52-17.79-12.17-17.79-12.17Z"/>
              <path class="cls-32" d="M194.79,352.23c9.2,11.87,22.39,7.03,25.26-2.97,0,0,1.68,12.34-7.59,14.74-13.98,3.66-17.67-11.77-17.67-11.77Z"/>
              <path class="cls-33" d="M194.85,352.26c8.98,12.18,22.65,7.24,25.21-2.97,0,0,1.24,11.89-7.66,14.33-13.76,3.8-17.54-11.36-17.54-11.36Z"/>
              <path class="cls-40" d="M194.92,352.28c8.76,12.5,22.91,7.45,25.15-2.96,0,0,.79,11.44-7.73,13.92-13.54,3.94-17.42-10.96-17.42-10.96Z"/>
            </g>
            <path class="cls-116" d="M163.92,337.7c11.14,6.66,22.48,9.48,33.58,8.3,17.4-1.86,34.77-14.28,44.47-32.12.18-.33.07-.77-.24-.99-.31-.21-.71-.13-.88.2-7.25,13.37-22.87,29.35-43.61,31.58-15.87,1.7-32.38-5.07-48.12-19.88-.29-.29-.7-.27-.91,0-.21.27-.15.72.15.99,5.14,4.83,10.35,8.81,15.57,11.94Z"/>
            <path class="cls-100" d="M197.11,338.41c-5,5.1-4.58,13.94.84,19.72,5.35,5.7,13.64,6.34,18.61,1.44,5.01-4.94,4.85-13.7-.47-19.61-5.39-5.99-13.93-6.69-18.98-1.55ZM209.96,342.78l3.33,10.17-9.32,2.41-3.42-10.13,9.41-2.45Z"/>
            <path class="cls-60" d="M197.94,339.31c-4.59,4.67-4.21,12.77.76,18.07,4.91,5.24,12.52,5.82,17.08,1.33,4.6-4.53,4.43-12.57-.45-17.98-4.94-5.48-12.76-6.12-17.39-1.42ZM209.62,343.49l2.96,9.03-8.28,2.15-3.04-9,8.36-2.18Z"/>
            <g class="cls-37">
              <path class="cls-124" d="M203.45,356.46l-4.03-11.92,11.08-2.89,3.9,11.97-10.95,2.83ZM201.74,345.96l2.77,8.24,7.59-1.97-2.71-8.27-7.65,1.99Z"/>
            </g>
          </g>
        </g>
        <g>
          <g class="cls-113">
            <g class="cls-44">
              <path d="M655.42,633.92l-392.94,65.92c-23.51,3.94-45.77-11.92-49.72-35.43L121.93,122.89c-3.94-23.51,10.98-51.4,34.49-55.34L549.36,1.63c23.51-3.94,43.41-2.14,47.36,21.37l94.14,561.2c3.94,23.51-11.92,45.77-35.43,49.72Z"/>
            </g>
            <g class="cls-126">
              <path class="cls-15" d="M649.35,626.99l-383.39,64.31c-22.99,3.86-44.75-11.65-48.61-34.64L128.13,124.79c-3.86-22.99,10.8-49.86,33.78-53.72L545.31,6.76c22.99-3.86,42.61-1.13,46.46,21.86l92.22,549.77c3.86,22.99-11.65,44.75-34.64,48.61Z"/>
            </g>
            <g class="cls-54">
              <path class="cls-94" d="M643.28,620.06l-373.85,62.71c-22.46,3.77-43.73-11.39-47.5-33.85L134.34,126.7c-3.77-22.46,10.61-48.33,33.08-52.1L541.26,11.89c22.46-3.77,41.8-.12,45.57,22.35l90.31,538.33c3.77,22.46-11.39,43.73-33.85,47.5Z"/>
            </g>
            <g class="cls-48">
              <path class="cls-57" d="M637.21,613.13l-364.3,61.11c-21.94,3.68-42.7-11.12-46.38-33.06L140.54,128.6c-3.68-21.94,10.43-46.8,32.37-50.48l364.3-61.11c21.94-3.68,40.99.89,44.67,22.83l88.39,526.9c3.68,21.94-11.12,42.7-33.06,46.38Z"/>
            </g>
            <g class="cls-18">
              <path class="cls-42" d="M631.14,606.2l-354.75,59.51c-21.41,3.59-41.68-10.85-45.27-32.27l-84.37-502.94c-3.59-21.41,10.25-45.26,31.67-48.85l354.75-59.51c21.41-3.59,40.18,1.91,43.77,23.32l86.47,515.46c3.59,21.41-10.85,41.68-32.27,45.27Z"/>
            </g>
            <g class="cls-6">
              <path class="cls-103" d="M625.07,599.27l-345.21,57.91c-20.89,3.5-40.66-10.59-44.16-31.47l-82.75-493.29c-3.5-20.89,10.07-43.73,30.96-47.23l345.21-57.91c20.89-3.5,39.37,2.92,42.88,23.8l84.55,504.03c3.5,20.89-10.59,40.66-31.47,44.16Z"/>
            </g>
            <g class="cls-1">
              <path class="cls-61" d="M619,592.33l-335.66,56.31c-20.36,3.42-39.64-10.32-43.05-30.68l-81.13-483.65c-3.42-20.36,9.89-42.19,30.25-45.61l335.66-56.31c20.36-3.42,38.56,3.93,41.98,24.29l82.63,492.59c3.42,20.36-10.32,39.64-30.68,43.05Z"/>
            </g>
            <g class="cls-111">
              <path class="cls-119" d="M612.93,585.4l-326.11,54.71c-19.84,3.33-38.61-10.05-41.94-29.89l-79.51-474c-3.33-19.83,9.71-40.66,29.55-43.98l326.11-54.71c19.84-3.33,37.75,4.94,41.08,24.78l80.71,481.16c3.33,19.84-10.05,38.61-29.89,41.94Z"/>
            </g>
            <g class="cls-136">
              <path class="cls-20" d="M606.86,578.47l-316.57,53.1c-19.31,3.24-37.59-9.79-40.83-29.1l-77.9-464.36c-3.24-19.31,9.53-39.12,28.84-42.36l316.57-53.1c19.31-3.24,36.95,5.95,40.18,25.26l78.8,469.73c3.24,19.31-9.79,37.59-29.1,40.83Z"/>
            </g>
            <g class="cls-66">
              <path class="cls-2" d="M600.79,571.54l-307.02,51.5c-18.78,3.15-36.57-9.52-39.72-28.31l-76.28-454.71c-3.15-18.78,9.35-37.59,28.13-40.74l307.02-51.5c18.78-3.15,36.14,6.97,39.29,25.75l76.88,458.29c3.15,18.78-9.52,36.57-28.31,39.72Z"/>
            </g>
            <g class="cls-107">
              <path class="cls-109" d="M594.72,564.61l-297.48,49.9c-18.26,3.06-35.54-9.26-38.61-27.51l-74.66-445.07c-3.06-18.26,9.17-36.05,27.43-39.12l297.48-49.9c18.26-3.06,35.33,7.98,38.39,26.24l74.96,446.86c3.06,18.26-9.26,35.54-27.51,38.61Z"/>
            </g>
            <rect class="cls-145" x="224.25" y="78.7" width="357.07" height="506.62" rx="32.56" ry="32.56" transform="translate(-49.38 71.21) rotate(-9.52)"/>
          </g>
          <g>
            <path class="cls-41" d="M246.35,64.85h318.75c19.51,0,35.36,15.84,35.36,35.36v472.95c0,19.51-15.84,35.36-35.36,35.36H246.35c-19.51,0-35.36-15.84-35.36-35.36V100.21c0-19.51,15.84-35.36,35.36-35.36Z" transform="translate(-50.11 71.76) rotate(-9.52)"/>
            <rect class="cls-7" x="212.27" y="65.92" width="387" height="541.94" rx="35.18" ry="35.18" transform="translate(-50.14 71.77) rotate(-9.52)"/>
            <rect class="cls-102" x="213.54" y="66.99" width="384.53" height="540.22" rx="35.01" ry="35.01" transform="translate(-50.18 71.78) rotate(-9.52)"/>
            <rect class="cls-114" x="214.81" y="68.06" width="382.05" height="538.5" rx="34.84" ry="34.84" transform="translate(-50.21 71.79) rotate(-9.52)"/>
            <path class="cls-53" d="M250.75,69.13h310.25c19.13,0,34.67,15.53,34.67,34.67v467.44c0,19.13-15.53,34.67-34.67,34.67H250.75c-19.13,0-34.67-15.53-34.67-34.67V103.8c0-19.13,15.53-34.67,34.67-34.67Z" transform="translate(-50.25 71.8) rotate(-9.52)"/>
            <path class="cls-14" d="M251.84,70.2h308.12c19.04,0,34.5,15.46,34.5,34.5v466.07c0,19.04-15.46,34.5-34.5,34.5H251.84c-19.04,0-34.5-15.46-34.5-34.5V104.69c0-19.04,15.46-34.5,34.5-34.5Z" transform="translate(-50.28 71.81) rotate(-9.52)"/>
            <rect class="cls-19" x="218.62" y="71.27" width="374.64" height="533.34" rx="34.32" ry="34.32" transform="translate(-50.31 71.81) rotate(-9.52)"/>
            <rect class="cls-81" x="219.89" y="72.34" width="372.17" height="531.61" rx="34.15" ry="34.15" transform="translate(-50.35 71.82) rotate(-9.52)"/>
            <rect class="cls-65" x="221.16" y="73.4" width="369.7" height="529.89" rx="33.98" ry="33.98" transform="translate(-50.38 71.83) rotate(-9.52)"/>
            <path class="cls-80" d="M256.24,74.47h299.62c18.66,0,33.81,15.15,33.81,33.81v460.56c0,18.66-15.15,33.81-33.81,33.81h-299.62c-18.66,0-33.81-15.15-33.81-33.81V108.28c0-18.66,15.15-33.81,33.81-33.81Z" transform="translate(-50.42 71.84) rotate(-9.52)"/>
            <path class="cls-64" d="M257.33,75.54h297.49c18.56,0,33.63,15.07,33.63,33.63v459.18c0,18.56-15.07,33.63-33.63,33.63h-297.49c-18.56,0-33.63-15.07-33.63-33.63V109.18c0-18.56,15.07-33.63,33.63-33.63Z" transform="translate(-50.45 71.85) rotate(-9.52)"/>
            <rect class="cls-56" x="224.97" y="76.61" width="362.29" height="524.73" rx="33.46" ry="33.46" transform="translate(-50.48 71.86) rotate(-9.52)"/>
            <rect class="cls-78" x="227.94" y="78.58" width="356.47" height="521.43" rx="33.07" ry="33.07" transform="translate(-50.54 71.87) rotate(-9.52)"/>
            <path class="cls-105" d="M263.58,80.56h285.29c18.04,0,32.68,14.64,32.68,32.68v452.76c0,18.04-14.64,32.68-32.68,32.68h-285.29c-18.04,0-32.68-14.64-32.68-32.68V113.24c0-18.04,14.64-32.68,32.68-32.68Z" transform="translate(-50.59 71.88) rotate(-9.52)"/>
            <rect class="cls-99" x="233.87" y="82.53" width="344.82" height="514.82" rx="32.29" ry="32.29" transform="translate(-50.64 71.9) rotate(-9.52)"/>
            <rect class="cls-98" x="236.83" y="84.5" width="339" height="511.51" rx="31.9" ry="31.9" transform="translate(-50.69 71.91) rotate(-9.52)"/>
            <rect class="cls-122" x="239.8" y="86.47" width="333.17" height="508.21" rx="31.5" ry="31.5" transform="translate(-50.74 71.92) rotate(-9.52)"/>
            <path class="cls-131" d="M273.87,88.45h265.13c17.17,0,31.11,13.94,31.11,31.11v442.68c0,17.17-13.94,31.11-31.11,31.11h-265.13c-17.17,0-31.11-13.94-31.11-31.11V119.56c0-17.17,13.94-31.11,31.11-31.11Z" transform="translate(-50.8 71.94) rotate(-9.52)"/>
            <path class="cls-47" d="M276.45,90.42h260.09c16.95,0,30.72,13.76,30.72,30.72v440.16c0,16.95-13.76,30.72-30.72,30.72h-260.09c-16.95,0-30.72-13.76-30.72-30.72V121.14c0-16.95,13.76-30.72,30.72-30.72Z" transform="translate(-50.85 71.95) rotate(-9.52)"/>
            <rect class="cls-125" x="248.69" y="92.39" width="315.7" height="498.3" rx="30.33" ry="30.33" transform="translate(-50.9 71.96) rotate(-9.52)"/>
            <rect class="cls-132" x="251.66" y="94.36" width="309.88" height="494.99" rx="29.94" ry="29.94" transform="translate(-50.95 71.98) rotate(-9.52)"/>
            <rect class="cls-130" x="254.63" y="96.34" width="304.05" height="491.69" rx="29.54" ry="29.54" transform="translate(-51.01 71.99) rotate(-9.52)"/>
            <path class="cls-135" d="M286.74,98.31h239.93c16.09,0,29.15,13.06,29.15,29.15v430.08c0,16.09-13.06,29.15-29.15,29.15h-239.93c-16.09,0-29.15-13.06-29.15-29.15V127.46c0-16.09,13.06-29.15,29.15-29.15Z" transform="translate(-51.06 72) rotate(-9.52)"/>
          </g>
          <g class="cls-37">
            <path class="cls-43" d="M206.65,97.32l301.86-50.64c10.58-1.78,31.47,2.35,27.5,5.63-81.52,67.27-260.17,107.92-353.76,57.83-4.5-2.41,13.39-10.97,24.4-12.82Z"/>
            <path class="cls-69" d="M213.53,95.59l288.56-48.41c9.79-1.64,27.35,2.51,23.16,5.56-77.47,56.37-237.89,93.65-331.99,54.43-4.7-1.96,10.13-9.88,20.27-11.58Z"/>
            <path class="cls-22" d="M220.42,93.87l275.25-46.17c8.99-1.51,23.26,2.68,18.82,5.49-72.74,46.08-215.94,79.73-310.21,51.03-4.92-1.5,6.87-8.79,16.14-10.35Z"/>
            <path class="cls-12" d="M227.3,92.14l261.94-43.94c8.19-1.37,19.2,2.87,14.48,5.42-67.44,36.44-194.21,66.22-288.43,47.63-5.15-1.02,3.6-7.7,12.01-9.11Z"/>
            <path class="cls-77" d="M234.18,90.42l248.63-41.71c7.39-1.24,15.16,3.11,10.14,5.35-61.69,27.53-172.56,53.15-266.65,44.23-5.38-.51.34-6.61,7.88-7.87Z"/>
            <path class="cls-87" d="M241.06,88.69l235.32-39.47c6.59-1.11,11.15,3.42,5.8,5.28-55.7,19.35-150.86,40.49-244.87,40.83-5.61.02-2.92-5.52,3.75-6.64Z"/>
            <path class="cls-139" d="M247.94,86.96l222.01-37.24c5.79-.97,7.15,3.85,1.46,5.21-49.74,11.92-129,28.15-223.09,37.43-5.84.58-6.19-4.43-.38-5.4Z"/>
          </g>
          <g class="cls-37">
            <path class="cls-43" d="M555.85,69.34c-32.72,40.46-98.64,69.25-180.64,83.01-82.56,13.85-154.73,7.9-198.74-20.09,0,0,46.2,69.13,205.56,42.4,168.83-28.32,173.82-105.32,173.82-105.32Z"/>
            <path class="cls-70" d="M555.85,69.34c-32.72,40.46-98.64,69.25-180.64,83.01-82.56,13.85-154.73,7.9-198.74-20.09,0,0,49.31,66.32,205.18,40.17,163.76-27.47,174.19-103.09,174.19-103.09Z"/>
            <path class="cls-25" d="M555.85,69.34c-32.72,40.46-98.64,69.25-180.64,83.01-82.56,13.85-154.73,7.9-198.74-20.09,0,0,52.42,63.51,204.81,37.95,158.7-26.62,174.57-100.87,174.57-100.87Z"/>
            <path class="cls-8" d="M555.85,69.34c-32.72,40.46-98.64,69.25-180.64,83.01-82.56,13.85-154.73,7.9-198.74-20.09,0,0,55.54,60.7,204.44,35.72,153.64-25.77,174.94-98.64,174.94-98.64Z"/>
            <path class="cls-75" d="M555.85,69.34c-32.72,40.46-98.64,69.25-180.64,83.01-82.56,13.85-154.73,7.9-198.74-20.09,0,0,58.65,57.89,204.06,33.5,148.57-24.92,175.31-96.42,175.31-96.42Z"/>
            <path class="cls-89" d="M555.85,69.34c-32.72,40.46-98.64,69.25-180.64,83.01-82.56,13.85-154.73,7.9-198.74-20.09,0,0,61.76,55.08,203.69,31.27,143.51-24.07,175.69-94.19,175.69-94.19Z"/>
            <path class="cls-104" d="M555.85,69.34c-32.72,40.46-98.64,69.25-180.64,83.01-82.56,13.85-154.73,7.9-198.74-20.09,0,0,64.88,52.27,203.32,29.05,138.44-23.22,176.06-91.97,176.06-91.97Z"/>
          </g>
          <path class="cls-28" d="M374.05,147.85c-75.88,12.73-151.81,10.42-197.21-15.75l1.14,6.8c46.85,27.4,119.54,31.16,197.59,18.07,77.93-13.07,145.56-40.4,180.88-81.56l-1.15-6.84c-34.28,39.54-105.48,66.57-181.26,79.28Z"/>
          <g class="cls-37">
            <path class="cls-43" d="M417.49,155.53c-4.45-24.27-25.16-41.56-47.89-38.32-22.73,3.23-38.87,26.56-34.42,50.83,4.45,24.27,26.47,40.53,49.2,37.3,22.73-3.23,37.56-25.53,33.11-49.81Z"/>
            <path class="cls-71" d="M416.57,154.57c-4.33-23.72-24.83-40.53-47.14-37.3-22.32,3.22-37.99,25.92-33.66,49.64,4.33,23.72,25.92,39.67,48.24,36.45,22.32-3.22,36.9-25.07,32.57-48.79Z"/>
            <path class="cls-24" d="M415.66,153.6c-4.21-23.17-24.49-39.5-46.4-36.28-21.9,3.21-37.12,25.28-32.91,48.45,4.21,23.17,25.37,38.81,47.27,35.6,21.9-3.21,36.25-24.6,32.03-47.77Z"/>
            <path class="cls-13" d="M414.74,152.63c-4.09-22.62-24.16-38.47-45.65-35.26-21.49,3.2-36.25,24.65-32.15,47.26,4.09,22.62,24.82,37.95,46.31,34.75,21.49-3.2,35.59-24.14,31.5-46.75Z"/>
            <path class="cls-74" d="M413.83,151.67c-3.97-22.06-23.83-37.44-44.9-34.24-21.07,3.19-35.37,24.01-31.4,46.08,3.97,22.06,24.27,37.09,45.34,33.9,21.07-3.19,34.94-23.67,30.96-45.73Z"/>
            <path class="cls-90" d="M412.92,150.7c-3.85-21.51-23.5-36.41-44.16-33.22-20.66,3.18-34.5,23.38-30.65,44.89,3.85,21.51,23.72,36.24,44.38,33.05,20.66-3.18,34.28-23.2,30.43-44.72Z"/>
            <path class="cls-141" d="M412,149.73c-3.73-20.96-23.17-35.38-43.41-32.2-20.24,3.17-33.62,22.74-29.89,43.7,3.73,20.96,23.17,35.38,43.41,32.2,20.24-3.18,33.62-22.74,29.89-43.7Z"/>
          </g>
          <path class="cls-106" d="M412.28,147.64c-3.41-20.56-22.84-34.46-43.4-31.04-20.56,3.41-34.46,22.84-31.04,43.4,3.41,20.56,22.84,34.46,43.4,31.04,20.56-3.41,34.46-22.84,31.04-43.4Z"/>
          <path class="cls-59" d="M409.88,147.94c-3.25-19.23-21.48-32.19-40.71-28.94-19.23,3.25-32.19,21.47-28.95,40.71,3.25,19.23,21.48,32.19,40.71,28.95,19.23-3.25,32.19-21.47,28.95-40.71Z"/>
          <g>
            <path class="cls-96" d="M401.98,149.27c-2.51-14.87-16.6-24.89-31.47-22.38-14.87,2.51-24.89,16.6-22.38,31.47,2.51,14.87,16.6,24.89,31.47,22.38,14.87-2.51,24.89-16.6,22.38-31.47Z"/>
            <path class="cls-38" d="M403.22,149.06c-2.63-15.55-17.37-26.03-32.92-23.41-15.55,2.63-26.03,17.37-23.41,32.92,2.63,15.55,17.37,26.03,32.92,23.41,15.55-2.63,26.03-17.37,23.41-32.92Z"/>
          </g>
        </g>
      </g>
    </g>
  </g>
</svg>