<?xml version="1.0" encoding="UTF-8"?>
<svg xmlns="http://www.w3.org/2000/svg" xmlns:xlink="http://www.w3.org/1999/xlink" viewBox="0 0 412.71 576.69">
  <defs>
    <style>
      .cls-1 {
        fill: url(#linear-gradient-15);
      }

      .cls-2 {
        fill: url(#linear-gradient-13);
      }

      .cls-3 {
        fill: url(#linear-gradient-28);
      }

      .cls-4 {
        fill: #dec0a7;
      }

      .cls-4, .cls-5, .cls-6 {
        opacity: .5;
      }

      .cls-7 {
        fill: url(#linear-gradient-2);
      }

      .cls-8 {
        fill: #fde1e2;
      }

      .cls-8, .cls-9, .cls-10 {
        opacity: .33;
      }

      .cls-11 {
        fill: url(#linear-gradient-25);
      }

      .cls-12 {
        fill: url(#linear-gradient-10);
      }

      .cls-13 {
        fill: url(#linear-gradient-12);
      }

      .cls-14 {
        fill: url(#linear-gradient-27);
      }

      .cls-9 {
        fill: #e4c8ca;
      }

      .cls-15 {
        fill: none;
        stroke: #e2b591;
        stroke-miterlimit: 10;
        stroke-width: 3.62px;
      }

      .cls-15, .cls-16 {
        mix-blend-mode: multiply;
      }

      .cls-10 {
        fill: #e9d5c4;
      }

      .cls-17 {
        fill: url(#linear-gradient-26);
      }

      .cls-18 {
        fill: url(#linear-gradient-4);
      }

      .cls-19 {
        fill: #fef0f0;
      }

      .cls-19, .cls-20, .cls-21 {
        opacity: .17;
      }

      .cls-22 {
        fill: #ca9295;
      }

      .cls-22, .cls-23, .cls-24 {
        opacity: .67;
      }

      .cls-25 {
        fill: #fff;
        opacity: 0;
      }

      .cls-26 {
        fill: url(#linear-gradient-3);
      }

      .cls-27 {
        fill: url(#linear-gradient-5);
      }

      .cls-28 {
        fill: url(#linear-gradient-22);
      }

      .cls-29 {
        fill: url(#linear-gradient-24);
      }

      .cls-20 {
        fill: #f4eae1;
      }

      .cls-21 {
        fill: #f2e4e4;
      }

      .cls-30 {
        fill: #fab3b7;
      }

      .cls-30, .cls-31, .cls-32 {
        opacity: .83;
      }

      .cls-33 {
        isolation: isolate;
      }

      .cls-34 {
        fill: url(#linear-gradient-8);
      }

      .cls-35 {
        fill: #bc804e;
      }

      .cls-23 {
        fill: #d2aa89;
      }

      .cls-36 {
        fill: url(#linear-gradient-14);
      }

      .cls-37 {
        fill: url(#linear-gradient-20);
      }

      .cls-38 {
        mix-blend-mode: screen;
      }

      .cls-39 {
        fill: url(#linear-gradient-17);
      }

      .cls-40 {
        fill: url(#linear-gradient-7);
      }

      .cls-41 {
        fill: url(#linear-gradient-9);
      }

      .cls-42 {
        fill: url(#linear-gradient-11);
      }

      .cls-43 {
        fill: url(#linear-gradient-19);
      }

      .cls-5 {
        fill: #fcd2d3;
      }

      .cls-44 {
        fill: url(#linear-gradient-6);
      }

      .cls-31 {
        fill: #c7956c;
      }

      .cls-45 {
        fill: url(#linear-gradient-21);
      }

      .cls-6 {
        fill: #d7adb0;
      }

      .cls-32 {
        fill: #bc767b;
      }

      .cls-24 {
        fill: #fbc2c5;
      }

      .cls-46 {
        fill: url(#linear-gradient-16);
      }

      .cls-47 {
        fill: #f9a4a8;
      }

      .cls-48 {
        fill: url(#linear-gradient);
      }

      .cls-49 {
        fill: #af5b60;
      }

      .cls-50 {
        fill: url(#linear-gradient-23);
      }

      .cls-51 {
        fill: url(#linear-gradient-18);
      }
    </style>
    <linearGradient id="linear-gradient" x1="204.09" y1="7.93" x2="204.09" y2="537.21" gradientUnits="userSpaceOnUse">
      <stop offset="0" stop-color="#f9f9f9"/>
      <stop offset="1" stop-color="#f56400"/>
    </linearGradient>
    <linearGradient id="linear-gradient-2" x1="206.35" y1="1.88" x2="206.35" y2="581.45" gradientUnits="userSpaceOnUse">
      <stop offset="0" stop-color="#fdac48"/>
      <stop offset=".05" stop-color="#fdae4b"/>
      <stop offset=".39" stop-color="#feba62"/>
      <stop offset=".71" stop-color="#fec170"/>
      <stop offset="1" stop-color="#ffc475"/>
    </linearGradient>
    <linearGradient id="linear-gradient-3" x1="206.35" y1="2.13" x2="206.35" y2="581.64" gradientUnits="userSpaceOnUse">
      <stop offset="0" stop-color="#fc9c43"/>
      <stop offset=".34" stop-color="#fdac57"/>
      <stop offset=".7" stop-color="#fdb866"/>
      <stop offset="1" stop-color="#febd6c"/>
    </linearGradient>
    <linearGradient id="linear-gradient-4" x1="206.35" y1="2.39" x2="206.35" y2="581.83" gradientUnits="userSpaceOnUse">
      <stop offset="0" stop-color="#fc8d3f"/>
      <stop offset=".32" stop-color="#fca050"/>
      <stop offset=".71" stop-color="#fcb15e"/>
      <stop offset="1" stop-color="#fdb764"/>
    </linearGradient>
    <linearGradient id="linear-gradient-5" x1="206.35" y1="2.65" x2="206.35" y2="582.01" gradientUnits="userSpaceOnUse">
      <stop offset="0" stop-color="#fb7d3a"/>
      <stop offset=".37" stop-color="#fb964a"/>
      <stop offset=".74" stop-color="#fba956"/>
      <stop offset="1" stop-color="#fcb05b"/>
    </linearGradient>
    <linearGradient id="linear-gradient-6" x1="206.35" y1="2.92" x2="206.35" y2="582.18" gradientUnits="userSpaceOnUse">
      <stop offset="0" stop-color="#fa6d36"/>
      <stop offset=".4" stop-color="#fa8c44"/>
      <stop offset=".76" stop-color="#faa14e"/>
      <stop offset="1" stop-color="#fba952"/>
    </linearGradient>
    <linearGradient id="linear-gradient-7" x1="206.35" y1="3.19" x2="206.35" y2="582.35" gradientUnits="userSpaceOnUse">
      <stop offset="0" stop-color="#f95e31"/>
      <stop offset=".41" stop-color="#f9803d"/>
      <stop offset=".77" stop-color="#f99846"/>
      <stop offset="1" stop-color="#faa24a"/>
    </linearGradient>
    <linearGradient id="linear-gradient-8" x1="206.35" y1="3.47" x2="206.35" y2="582.51" gradientUnits="userSpaceOnUse">
      <stop offset="0" stop-color="#f94e2d"/>
      <stop offset=".4" stop-color="#f97336"/>
      <stop offset=".78" stop-color="#f9903e"/>
      <stop offset="1" stop-color="#fa9c41"/>
    </linearGradient>
    <linearGradient id="linear-gradient-9" x1="206.35" y1="3.76" x2="206.35" y2="582.66" gradientUnits="userSpaceOnUse">
      <stop offset="0" stop-color="#f83f28"/>
      <stop offset=".36" stop-color="#f8622f"/>
      <stop offset=".78" stop-color="#f88736"/>
      <stop offset="1" stop-color="#f99539"/>
    </linearGradient>
    <linearGradient id="linear-gradient-10" x1="206.35" y1="4.05" x2="206.35" y2="582.81" gradientUnits="userSpaceOnUse">
      <stop offset="0" stop-color="#f72f24"/>
      <stop offset=".26" stop-color="#f74b27"/>
      <stop offset=".75" stop-color="#f77b2d"/>
      <stop offset="1" stop-color="#f88e30"/>
    </linearGradient>
    <linearGradient id="linear-gradient-11" x1="206.35" y1="4.34" x2="206.35" y2="582.96" gradientUnits="userSpaceOnUse">
      <stop offset="0" stop-color="#f61f1f"/>
      <stop offset=".03" stop-color="#f6221f"/>
      <stop offset=".69" stop-color="#f66a24"/>
      <stop offset="1" stop-color="#f78727"/>
    </linearGradient>
    <linearGradient id="linear-gradient-12" x1="206.35" y1="4.65" x2="206.35" y2="583.1" gradientUnits="userSpaceOnUse">
      <stop offset="0" stop-color="#f6101b"/>
      <stop offset=".48" stop-color="#f6481c"/>
      <stop offset="1" stop-color="#f6811f"/>
    </linearGradient>
    <linearGradient id="linear-gradient-13" x1="206.35" y1="4.95" x2="206.35" y2="583.23" gradientUnits="userSpaceOnUse">
      <stop offset="0" stop-color="#f50016"/>
      <stop offset="1" stop-color="#f57a16"/>
    </linearGradient>
    <linearGradient id="linear-gradient-14" x1="206.35" y1="37.82" x2="206.35" y2="580.84" gradientUnits="userSpaceOnUse">
      <stop offset="0" stop-color="#f40016"/>
      <stop offset=".77" stop-color="#f45516"/>
      <stop offset="1" stop-color="#f46f15"/>
    </linearGradient>
    <linearGradient id="linear-gradient-15" x1="206.35" y1="70.29" x2="206.35" y2="578.46" gradientUnits="userSpaceOnUse">
      <stop offset="0" stop-color="#f30016"/>
      <stop offset=".77" stop-color="#f34c16"/>
      <stop offset="1" stop-color="#f26414"/>
    </linearGradient>
    <linearGradient id="linear-gradient-16" x1="206.35" y1="102.37" x2="206.35" y2="576.09" gradientUnits="userSpaceOnUse">
      <stop offset="0" stop-color="#f20015"/>
      <stop offset=".77" stop-color="#f24415"/>
      <stop offset="1" stop-color="#f15913"/>
    </linearGradient>
    <linearGradient id="linear-gradient-17" x1="206.35" y1="134.07" x2="206.35" y2="573.74" gradientUnits="userSpaceOnUse">
      <stop offset="0" stop-color="#f10015"/>
      <stop offset=".77" stop-color="#f13b15"/>
      <stop offset="1" stop-color="#f04e12"/>
    </linearGradient>
    <linearGradient id="linear-gradient-18" x1="206.35" y1="165.37" x2="206.35" y2="571.39" gradientUnits="userSpaceOnUse">
      <stop offset="0" stop-color="#f00015"/>
      <stop offset=".77" stop-color="#f03315"/>
      <stop offset="1" stop-color="#ef4311"/>
    </linearGradient>
    <linearGradient id="linear-gradient-19" x1="206.35" y1="196.29" x2="206.35" y2="569.06" gradientUnits="userSpaceOnUse">
      <stop offset="0" stop-color="#ee0015"/>
      <stop offset=".77" stop-color="#ee2a15"/>
      <stop offset="1" stop-color="#ed3710"/>
    </linearGradient>
    <linearGradient id="linear-gradient-20" x1="206.35" y1="226.82" x2="206.35" y2="566.74" gradientUnits="userSpaceOnUse">
      <stop offset="0" stop-color="#ed0015"/>
      <stop offset=".77" stop-color="#ed2215"/>
      <stop offset="1" stop-color="#ec2c0f"/>
    </linearGradient>
    <linearGradient id="linear-gradient-21" x1="206.35" y1="256.95" x2="206.35" y2="564.43" gradientUnits="userSpaceOnUse">
      <stop offset="0" stop-color="#ec0015"/>
      <stop offset=".77" stop-color="#ec1915"/>
      <stop offset="1" stop-color="#eb210e"/>
    </linearGradient>
    <linearGradient id="linear-gradient-22" x1="206.35" y1="286.7" x2="206.35" y2="562.13" gradientUnits="userSpaceOnUse">
      <stop offset="0" stop-color="#eb0014"/>
      <stop offset=".77" stop-color="#eb1114"/>
      <stop offset="1" stop-color="#ea160d"/>
    </linearGradient>
    <linearGradient id="linear-gradient-23" x1="206.35" y1="316.06" x2="206.35" y2="559.84" gradientUnits="userSpaceOnUse">
      <stop offset="0" stop-color="#ea0014"/>
      <stop offset=".77" stop-color="#ea0814"/>
      <stop offset="1" stop-color="#e80b0c"/>
    </linearGradient>
    <linearGradient id="linear-gradient-24" x1="206.35" y1="345.03" x2="206.35" y2="557.56" gradientUnits="userSpaceOnUse">
      <stop offset=".77" stop-color="#e90014"/>
      <stop offset="1" stop-color="#e7000b"/>
    </linearGradient>
    <linearGradient id="linear-gradient-25" x1="12.92" y1="65.1" x2="408.11" y2="65.1" gradientUnits="userSpaceOnUse">
      <stop offset=".02" stop-color="#f9b751"/>
      <stop offset=".29" stop-color="#fce89d"/>
      <stop offset=".29" stop-color="#fbe79c"/>
      <stop offset=".46" stop-color="#f8b55c"/>
      <stop offset=".58" stop-color="#f69635"/>
      <stop offset=".64" stop-color="#f68b26"/>
      <stop offset=".71" stop-color="#f28620"/>
      <stop offset=".8" stop-color="#ea7912"/>
      <stop offset=".86" stop-color="#e26e04"/>
      <stop offset=".92" stop-color="#e26f05"/>
      <stop offset=".94" stop-color="#e3750c"/>
      <stop offset=".96" stop-color="#e67f18"/>
      <stop offset=".97" stop-color="#e98d29"/>
      <stop offset=".98" stop-color="#ee9f3f"/>
      <stop offset=".99" stop-color="#f4b659"/>
      <stop offset="1" stop-color="#fad079"/>
      <stop offset="1" stop-color="#fbd17a"/>
    </linearGradient>
    <linearGradient id="linear-gradient-26" x1="196.63" y1="61.67" x2="214.86" y2="118.81" gradientUnits="userSpaceOnUse">
      <stop offset=".06" stop-color="#ffd073"/>
      <stop offset=".96" stop-color="#bb4b00"/>
    </linearGradient>
    <linearGradient id="linear-gradient-27" x1="164.08" y1="39.04" x2="243.66" y2="139.03" gradientUnits="userSpaceOnUse">
      <stop offset="0" stop-color="#f9bb58"/>
      <stop offset=".18" stop-color="#fce89d"/>
      <stop offset=".18" stop-color="#fbe79c"/>
      <stop offset=".34" stop-color="#f8b55c"/>
      <stop offset=".46" stop-color="#f69635"/>
      <stop offset=".52" stop-color="#f68b26"/>
      <stop offset=".64" stop-color="#f28620"/>
      <stop offset=".77" stop-color="#ea7912"/>
      <stop offset=".86" stop-color="#e26e04"/>
    </linearGradient>
    <linearGradient id="linear-gradient-28" x1="176.1" y1="64.04" x2="232.83" y2="116.75" gradientUnits="userSpaceOnUse">
      <stop offset="0" stop-color="#f9bb58"/>
      <stop offset=".23" stop-color="#fce89d"/>
      <stop offset=".23" stop-color="#fbe79c"/>
      <stop offset=".44" stop-color="#f8b55c"/>
      <stop offset=".59" stop-color="#f69635"/>
      <stop offset=".66" stop-color="#f68b26"/>
      <stop offset=".77" stop-color="#f28620"/>
      <stop offset=".91" stop-color="#ea7912"/>
      <stop offset="1" stop-color="#e26e04"/>
    </linearGradient>
  </defs>
  <g class="cls-33">
    <g id="Layer_2" data-name="Layer 2">
      <g id="Layer_1-2" data-name="Layer 1">
        <g>
          <g class="cls-38">
            <rect class="cls-48" x="14.9" y="14.81" width="378.37" height="536.85" rx="34.5" ry="34.5"/>
          </g>
          <g>
            <rect class="cls-7" y=".58" width="412.71" height="576.1" rx="37.47" ry="37.47"/>
            <rect class="cls-26" x="1.31" y="1.72" width="410.09" height="574.28" rx="37.28" ry="37.28"/>
            <rect class="cls-18" x="2.62" y="2.86" width="407.47" height="572.46" rx="37.1" ry="37.1"/>
            <rect class="cls-27" x="3.93" y="3.99" width="404.85" height="570.63" rx="36.92" ry="36.92"/>
            <path class="cls-44" d="M41.97,5.13h328.76c20.28,0,36.74,16.46,36.74,36.74v495.34c0,20.28-16.46,36.74-36.74,36.74H41.97c-20.28,0-36.74-16.46-36.74-36.74V41.86C5.24,21.59,21.7,5.13,41.97,5.13Z"/>
            <rect class="cls-40" x="6.55" y="6.26" width="399.62" height="566.99" rx="36.55" ry="36.55"/>
            <rect class="cls-34" x="7.85" y="7.4" width="397" height="565.16" rx="36.37" ry="36.37"/>
            <rect class="cls-41" x="9.16" y="8.54" width="394.38" height="563.34" rx="36.19" ry="36.19"/>
            <path class="cls-12" d="M46.48,9.67h319.75c19.87,0,36.01,16.13,36.01,36.01v489.5c0,19.87-16.13,36.01-36.01,36.01H46.48c-19.87,0-36.01-16.13-36.01-36.01V45.68c0-19.87,16.13-36.01,36.01-36.01Z"/>
            <rect class="cls-42" x="11.78" y="10.81" width="389.14" height="559.69" rx="35.82" ry="35.82"/>
            <path class="cls-13" d="M48.73,11.95h315.24c19.67,0,35.64,15.97,35.64,35.64v486.58c0,19.67-15.97,35.64-35.64,35.64H48.73c-19.67,0-35.64-15.97-35.64-35.64V47.59c0-19.67,15.97-35.64,35.64-35.64Z"/>
            <rect class="cls-2" x="14.4" y="13.08" width="383.91" height="556.04" rx="35.46" ry="35.46"/>
            <rect class="cls-36" x="17.48" y="15.18" width="377.74" height="552.54" rx="35.04" ry="35.04"/>
            <path class="cls-1" d="M55.2,17.27h302.31c19.11,0,34.63,15.52,34.63,34.63v479.78c0,19.11-15.52,34.63-34.63,34.63H55.2c-19.11,0-34.63-15.52-34.63-34.63V51.9c0-19.11,15.52-34.63,34.63-34.63Z"/>
            <path class="cls-46" d="M57.87,19.37h296.97c18.88,0,34.21,15.33,34.21,34.21v477.11c0,18.88-15.33,34.21-34.21,34.21H57.87c-18.88,0-34.21-15.33-34.21-34.21V53.58c0-18.88,15.33-34.21,34.21-34.21Z"/>
            <rect class="cls-39" x="26.74" y="21.46" width="359.22" height="542.04" rx="33.8" ry="33.8"/>
            <rect class="cls-51" x="29.83" y="23.56" width="353.05" height="538.53" rx="33.38" ry="33.38"/>
            <rect class="cls-43" x="32.91" y="25.65" width="346.88" height="535.03" rx="32.97" ry="32.97"/>
            <rect class="cls-37" x="36" y="27.74" width="340.71" height="531.53" rx="32.55" ry="32.55"/>
            <path class="cls-45" d="M71.22,29.84h270.26c17.74,0,32.14,14.4,32.14,32.14v463.76c0,17.74-14.4,32.14-32.14,32.14H71.22c-17.74,0-32.14-14.4-32.14-32.14V61.98c0-17.74,14.4-32.14,32.14-32.14Z"/>
            <path class="cls-28" d="M73.89,31.93h264.92c17.51,0,31.72,14.21,31.72,31.72v461.08c0,17.51-14.21,31.72-31.72,31.72H73.89c-17.51,0-31.72-14.21-31.72-31.72V63.66c0-17.51,14.21-31.72,31.72-31.72Z"/>
            <rect class="cls-50" x="45.25" y="34.03" width="322.2" height="521.03" rx="31.31" ry="31.31"/>
            <rect class="cls-29" x="48.34" y="36.12" width="316.03" height="517.53" rx="30.89" ry="30.89"/>
          </g>
          <g class="cls-16">
            <path class="cls-25" d="M40.27,3.59h324.35c11.37,0,32.48,7.97,27.75,10.71C295.37,70.3,101.55,81.47,12.52,12.71c-4.28-3.31,15.92-9.12,27.75-9.12Z"/>
            <path class="cls-19" d="M47.76,2.99h310.05c10.51,0,28.15,7.42,23.23,9.87-90.85,45.33-265.03,56.16-356.49-1.32-4.57-2.87,12.32-8.55,23.22-8.55Z"/>
            <path class="cls-8" d="M55.26,2.39h295.75c9.66,0,23.84,6.87,18.71,9.04-84.1,35.4-239.65,45.46-333.13-1.05-4.88-2.43,8.72-7.98,18.68-7.98Z"/>
            <path class="cls-5" d="M62.75,1.79h281.44c8.8,0,19.56,6.37,14.18,8.2-76.86,26.26-214.57,35.16-309.78-.79-5.2-1.96,5.12-7.41,14.15-7.41Z"/>
            <path class="cls-24" d="M70.25,1.2h267.14c7.94,0,15.3,5.91,9.66,7.37-69.29,17.95-189.65,25.3-286.42-.52-5.54-1.48,1.51-6.85,9.62-6.85Z"/>
            <path class="cls-30" d="M77.74.6h252.84c7.08,0,11.05,5.53,5.14,6.53-61.6,10.46-164.76,15.86-263.07-.25-5.87-.96-2.09-6.28,5.09-6.28Z"/>
            <path class="cls-47" d="M85.23,0h238.54c6.22,0,6.8,5.27.62,5.7-54.08,3.74-139.75,6.81-239.71.01-6.2-.42-5.69-5.71.55-5.71Z"/>
          </g>
          <g class="cls-16">
            <path class="cls-25" d="M410.11,35.56c-41.29,36.55-115.22,55.08-203.33,55.08S43.68,71.77,2.6,34.81c0,0,36.16,80.34,207.39,80.34,181.4,0,200.12-79.59,200.12-79.59Z"/>
            <path class="cls-20" d="M410.11,35.56c-41.29,36.55-115.22,55.08-203.33,55.08S43.68,71.77,2.6,34.81c0,0,39.91,77.95,207.39,77.95,175.96,0,200.12-77.2,200.12-77.2Z"/>
            <path class="cls-10" d="M410.11,35.56c-41.29,36.55-115.22,55.08-203.33,55.08S43.68,71.77,2.6,34.81c0,0,43.65,75.56,207.39,75.56s200.12-74.81,200.12-74.81Z"/>
            <path class="cls-4" d="M410.11,35.56c-41.29,36.55-115.22,55.08-203.33,55.08S43.68,71.77,2.6,34.81c0,0,47.4,73.17,207.39,73.17s200.12-72.42,200.12-72.42Z"/>
            <path class="cls-23" d="M410.11,35.56c-41.29,36.55-115.22,55.08-203.33,55.08S43.68,71.77,2.6,34.81c0,0,51.14,70.78,207.39,70.78s200.12-70.03,200.12-70.03Z"/>
            <path class="cls-31" d="M410.11,35.56c-41.29,36.55-115.22,55.08-203.33,55.08S43.68,71.77,2.6,34.81c0,0,54.89,68.39,207.39,68.39s200.12-67.64,200.12-67.64Z"/>
            <path class="cls-35" d="M410.11,35.56c-41.29,36.55-115.22,55.08-203.33,55.08S43.68,71.77,2.6,34.81c0,0,58.64,66,207.39,66s200.12-65.25,200.12-65.25Z"/>
          </g>
          <path class="cls-11" d="M206.35,85.74c-81.53,0-160.48-15.72-203.33-51.03v7.31c44.15,36.85,119.46,53.52,203.33,53.52s159.2-16.7,203.33-53.52v-7.35c-42.76,35.32-121.9,51.08-203.33,51.08Z"/>
          <g class="cls-16">
            <path class="cls-25" d="M250.4,101.38c-.39-26.15-19-47.84-43.33-48.45-24.33-.61-45.27,20.94-44.88,47.09.39,26.15,20.55,47,44.88,47.61,24.33.61,43.73-20.1,43.33-46.25Z"/>
            <path class="cls-21" d="M249.61,100.21c-.37-25.55-18.84-46.7-42.73-47.25-23.89-.54-44.25,20.43-43.88,45.98.37,25.55,20.13,46,44.02,46.55,23.89.54,42.96-19.73,42.59-45.28Z"/>
            <path class="cls-9" d="M248.83,99.04c-.34-24.95-18.67-45.57-42.13-46.05-23.45-.48-43.23,19.92-42.89,44.87.34,24.95,19.71,45.01,43.16,45.49,23.45.48,42.19-19.36,41.85-44.31Z"/>
            <path class="cls-6" d="M248.04,97.87c-.31-24.35-18.51-44.44-41.53-44.85-23.02-.42-42.2,19.4-41.89,43.76.31,24.35,19.28,44.02,42.3,44.43,23.02.42,41.43-18.98,41.11-43.34Z"/>
            <path class="cls-22" d="M247.26,96.7c-.28-23.75-18.34-43.3-40.92-43.66-22.58-.36-41.18,18.89-40.89,42.65.28,23.75,18.86,43.02,41.44,43.38,22.58.36,40.66-18.61,40.38-42.37Z"/>
            <path class="cls-32" d="M246.47,95.53c-.26-23.16-18.18-42.17-40.32-42.46-22.15-.29-40.15,18.38-39.9,41.54.26,23.16,18.44,42.03,40.58,42.32,22.15.29,39.89-18.24,39.64-41.4Z"/>
            <path class="cls-49" d="M245.68,94.36c-.23-22.56-18.01-41.03-39.72-41.26-21.71-.23-39.13,17.87-38.9,40.43.23,22.56,18.01,41.03,39.72,41.26,21.71.23,39.13-17.87,38.9-40.43Z"/>
          </g>
          <path class="cls-17" d="M246.34,92.22c.04-22.08-17.83-40.01-39.91-40.05-22.08-.04-40.01,17.83-40.05,39.91-.04,22.08,17.83,40.01,39.91,40.05,22.08.04,40.01-17.83,40.05-39.91Z"/>
          <path class="cls-14" d="M243.78,92.11c-.02-20.67-16.8-37.41-37.47-37.39-20.67.02-37.41,16.8-37.39,37.47.02,20.67,16.8,37.41,37.47,37.39,20.67-.02,37.41-16.8,37.39-37.47Z"/>
          <g>
            <path class="cls-3" d="M235.29,92.12c-.02-15.98-12.99-28.92-28.97-28.9-15.98.02-28.92,12.99-28.9,28.97.02,15.98,12.99,28.92,28.97,28.9,15.98-.02,28.92-12.99,28.9-28.97Z"/>
            <path class="cls-15" d="M236.62,92.12c-.02-16.72-13.58-30.25-30.3-30.23-16.72.02-30.25,13.58-30.23,30.3.02,16.72,13.58,30.25,30.3,30.23,16.72-.02,30.25-13.58,30.23-30.3Z"/>
          </g>
        </g>
      </g>
    </g>
  </g>
</svg>