<?xml version="1.0" encoding="UTF-8"?>
<svg xmlns="http://www.w3.org/2000/svg" xmlns:xlink="http://www.w3.org/1999/xlink" viewBox="0 0 1064.7 502.25">
  <defs>
    <style>
      .cls-1 {
        fill: url(#linear-gradient-61);
      }

      .cls-2 {
        fill: url(#linear-gradient-20);
      }

      .cls-2, .cls-3 {
        opacity: .61;
      }

      .cls-4 {
        fill: url(#linear-gradient-87);
      }

      .cls-4, .cls-5 {
        opacity: .74;
      }

      .cls-6 {
        fill: url(#linear-gradient-10);
      }

      .cls-6, .cls-7 {
        opacity: .29;
      }

      .cls-8 {
        fill: url(#linear-gradient-22);
      }

      .cls-8, .cls-9 {
        opacity: .68;
      }

      .cls-10 {
        fill: url(#linear-gradient-53);
      }

      .cls-11 {
        fill: url(#linear-gradient-42);
      }

      .cls-12 {
        fill: url(#linear-gradient-23);
      }

      .cls-12, .cls-13 {
        opacity: .71;
      }

      .cls-14 {
        fill: url(#linear-gradient-46);
      }

      .cls-15 {
        fill: url(#linear-gradient-18);
      }

      .cls-15, .cls-16 {
        opacity: .55;
      }

      .cls-17 {
        fill: url(#linear-gradient-15);
      }

      .cls-17, .cls-18 {
        opacity: .45;
      }

      .cls-19 {
        fill: url(#linear-gradient-60);
      }

      .cls-20 {
        fill: url(#linear-gradient-2);
      }

      .cls-20, .cls-21 {
        opacity: .03;
      }

      .cls-22 {
        fill: url(#linear-gradient-95);
      }

      .cls-23 {
        fill: url(#linear-gradient-89);
      }

      .cls-23, .cls-24 {
        opacity: .81;
      }

      .cls-21 {
        fill: url(#linear-gradient-65);
      }

      .cls-25 {
        fill: url(#linear-gradient-90);
      }

      .cls-25, .cls-26 {
        opacity: .84;
      }

      .cls-27 {
        fill: url(#linear-gradient-74);
      }

      .cls-27, .cls-28 {
        opacity: .32;
      }

      .cls-29 {
        fill: url(#linear-gradient-56);
      }

      .cls-30 {
        fill: url(#linear-gradient-43);
      }

      .cls-31 {
        fill: url(#linear-gradient-72);
      }

      .cls-31, .cls-32 {
        opacity: .26;
      }

      .cls-33 {
        fill: url(#linear-gradient-40);
      }

      .cls-34 {
        fill: url(#linear-gradient-37);
      }

      .cls-35 {
        fill: url(#linear-gradient-91);
      }

      .cls-35, .cls-36 {
        opacity: .87;
      }

      .cls-37 {
        fill: url(#linear-gradient-55);
      }

      .cls-38 {
        fill: url(#linear-gradient-16);
      }

      .cls-38, .cls-39 {
        opacity: .48;
      }

      .cls-16 {
        fill: url(#linear-gradient-81);
      }

      .cls-40 {
        fill: url(#linear-gradient-39);
      }

      .cls-41 {
        fill: url(#linear-gradient-88);
      }

      .cls-41, .cls-42 {
        opacity: .77;
      }

      .cls-43 {
        fill: url(#linear-gradient-4);
      }

      .cls-43, .cls-44 {
        opacity: .1;
      }

      .cls-45 {
        fill: url(#linear-gradient-52);
      }

      .cls-46 {
        fill: url(#linear-gradient-58);
      }

      .cls-18 {
        fill: url(#linear-gradient-78);
      }

      .cls-47 {
        fill: url(#linear-gradient-47);
      }

      .cls-48 {
        fill: url(#linear-gradient-14);
      }

      .cls-48, .cls-49 {
        opacity: .42;
      }

      .cls-50 {
        fill: url(#linear-gradient-17);
      }

      .cls-50, .cls-51 {
        opacity: .52;
      }

      .cls-52 {
        fill: url(#linear-gradient-35);
      }

      .cls-36 {
        fill: url(#linear-gradient-28);
      }

      .cls-53 {
        fill: url(#linear-gradient-64);
      }

      .cls-53, .cls-54 {
        opacity: 0;
      }

      .cls-7 {
        fill: url(#linear-gradient-73);
      }

      .cls-55 {
        fill: url(#linear-gradient-70);
      }

      .cls-55, .cls-56 {
        opacity: .19;
      }

      .cls-57 {
        fill: url(#linear-gradient-44);
      }

      .cls-44 {
        fill: url(#linear-gradient-67);
      }

      .cls-58 {
        fill: url(#linear-gradient-49);
      }

      .cls-59 {
        fill: url(#linear-gradient-34);
      }

      .cls-60 {
        fill: url(#linear-gradient-66);
      }

      .cls-60, .cls-61 {
        opacity: .06;
      }

      .cls-62 {
        fill: url(#linear-gradient-5);
      }

      .cls-62, .cls-63 {
        opacity: .13;
      }

      .cls-64 {
        fill: url(#linear-gradient-38);
      }

      .cls-65 {
        fill: url(#linear-gradient-94);
      }

      .cls-65, .cls-66 {
        opacity: .97;
      }

      .cls-67 {
        fill: url(#linear-gradient-54);
      }

      .cls-68 {
        isolation: isolate;
      }

      .cls-26 {
        fill: url(#linear-gradient-27);
      }

      .cls-69 {
        fill: url(#linear-gradient-6);
      }

      .cls-69, .cls-70 {
        opacity: .16;
      }

      .cls-71 {
        fill: url(#linear-gradient-33);
      }

      .cls-72 {
        fill: url(#linear-gradient-51);
      }

      .cls-73 {
        fill: url(#linear-gradient-57);
      }

      .cls-74 {
        fill: url(#linear-gradient-29);
      }

      .cls-74, .cls-75 {
        opacity: .9;
      }

      .cls-49 {
        fill: url(#linear-gradient-77);
      }

      .cls-76 {
        fill: url(#linear-gradient-75);
      }

      .cls-76, .cls-77 {
        opacity: .35;
      }

      .cls-78 {
        fill: url(#linear-gradient-71);
      }

      .cls-78, .cls-79 {
        opacity: .23;
      }

      .cls-80 {
        fill: url(#linear-gradient-13);
      }

      .cls-80, .cls-81 {
        opacity: .39;
      }

      .cls-82 {
        fill: url(#linear-gradient-62);
      }

      .cls-66 {
        fill: url(#linear-gradient-31);
      }

      .cls-83 {
        mix-blend-mode: screen;
      }

      .cls-32 {
        fill: url(#linear-gradient-9);
      }

      .cls-54 {
        fill: url(#linear-gradient);
      }

      .cls-84 {
        fill: url(#linear-gradient-50);
      }

      .cls-13 {
        fill: url(#linear-gradient-86);
      }

      .cls-39 {
        fill: url(#linear-gradient-79);
      }

      .cls-85 {
        fill: url(#linear-gradient-59);
      }

      .cls-61 {
        fill: url(#linear-gradient-3);
      }

      .cls-24 {
        fill: url(#linear-gradient-26);
      }

      .cls-9 {
        fill: url(#linear-gradient-85);
      }

      .cls-51 {
        fill: url(#linear-gradient-80);
      }

      .cls-86 {
        fill: url(#linear-gradient-30);
      }

      .cls-86, .cls-87 {
        opacity: .94;
      }

      .cls-88 {
        fill: url(#linear-gradient-36);
      }

      .cls-75 {
        fill: url(#linear-gradient-92);
      }

      .cls-89 {
        fill: url(#linear-gradient-82);
      }

      .cls-89, .cls-90 {
        opacity: .58;
      }

      .cls-91 {
        fill: url(#linear-gradient-45);
      }

      .cls-90 {
        fill: url(#linear-gradient-19);
      }

      .cls-70 {
        fill: url(#linear-gradient-69);
      }

      .cls-87 {
        fill: url(#linear-gradient-93);
      }

      .cls-92 {
        fill: url(#linear-gradient-48);
      }

      .cls-3 {
        fill: url(#linear-gradient-83);
      }

      .cls-93 {
        fill: url(#linear-gradient-32);
      }

      .cls-94 {
        fill: url(#linear-gradient-84);
      }

      .cls-94, .cls-95 {
        opacity: .65;
      }

      .cls-96 {
        fill: url(#linear-gradient-41);
      }

      .cls-28 {
        fill: url(#linear-gradient-11);
      }

      .cls-56 {
        fill: url(#linear-gradient-7);
      }

      .cls-97 {
        fill: url(#linear-gradient-63);
      }

      .cls-5 {
        fill: url(#linear-gradient-24);
      }

      .cls-95 {
        fill: url(#linear-gradient-21);
      }

      .cls-63 {
        fill: url(#linear-gradient-68);
      }

      .cls-42 {
        fill: url(#linear-gradient-25);
      }

      .cls-81 {
        fill: url(#linear-gradient-76);
      }

      .cls-77 {
        fill: url(#linear-gradient-12);
      }

      .cls-79 {
        fill: url(#linear-gradient-8);
      }
    </style>
    <linearGradient id="linear-gradient" x1="532.35" y1="499.22" x2="532.35" y2="74.67" gradientUnits="userSpaceOnUse">
      <stop offset="0" stop-color="#d8001a"/>
      <stop offset=".37" stop-color="#ed621a"/>
      <stop offset=".69" stop-color="#ed4210"/>
      <stop offset="1" stop-color="#000"/>
    </linearGradient>
    <linearGradient id="linear-gradient-2" x1="532.64" y1="498.96" x2="532.64" y2="74.33" xlink:href="#linear-gradient"/>
    <linearGradient id="linear-gradient-3" x1="532.93" y1="498.7" x2="532.93" y2="73.99" xlink:href="#linear-gradient"/>
    <linearGradient id="linear-gradient-4" x1="533.22" y1="498.44" x2="533.22" y2="73.65" xlink:href="#linear-gradient"/>
    <linearGradient id="linear-gradient-5" x1="533.51" y1="498.18" x2="533.51" y2="73.31" xlink:href="#linear-gradient"/>
    <linearGradient id="linear-gradient-6" x1="533.8" y1="497.92" x2="533.8" y2="72.98" xlink:href="#linear-gradient"/>
    <linearGradient id="linear-gradient-7" x1="534.09" y1="497.66" x2="534.09" y2="72.64" xlink:href="#linear-gradient"/>
    <linearGradient id="linear-gradient-8" x1="534.38" y1="497.4" x2="534.38" y2="72.3" xlink:href="#linear-gradient"/>
    <linearGradient id="linear-gradient-9" x1="534.67" y1="497.14" x2="534.67" y2="71.96" xlink:href="#linear-gradient"/>
    <linearGradient id="linear-gradient-10" x1="534.97" y1="496.88" x2="534.97" y2="71.62" xlink:href="#linear-gradient"/>
    <linearGradient id="linear-gradient-11" x1="535.26" y1="496.62" x2="535.26" y2="71.28" xlink:href="#linear-gradient"/>
    <linearGradient id="linear-gradient-12" x1="535.55" y1="496.37" x2="535.55" y2="70.94" xlink:href="#linear-gradient"/>
    <linearGradient id="linear-gradient-13" x1="535.84" y1="496.11" x2="535.84" y2="70.6" xlink:href="#linear-gradient"/>
    <linearGradient id="linear-gradient-14" x1="536.13" y1="495.85" x2="536.13" y2="70.27" xlink:href="#linear-gradient"/>
    <linearGradient id="linear-gradient-15" x1="536.42" y1="495.59" x2="536.42" y2="69.93" xlink:href="#linear-gradient"/>
    <linearGradient id="linear-gradient-16" x1="536.71" y1="495.33" x2="536.71" y2="69.59" xlink:href="#linear-gradient"/>
    <linearGradient id="linear-gradient-17" x1="537" y1="495.07" x2="537" y2="69.25" xlink:href="#linear-gradient"/>
    <linearGradient id="linear-gradient-18" x1="537.29" y1="494.81" x2="537.29" y2="68.91" xlink:href="#linear-gradient"/>
    <linearGradient id="linear-gradient-19" x1="537.58" y1="494.55" x2="537.58" y2="68.57" xlink:href="#linear-gradient"/>
    <linearGradient id="linear-gradient-20" x1="537.87" y1="494.29" x2="537.87" y2="68.23" xlink:href="#linear-gradient"/>
    <linearGradient id="linear-gradient-21" x1="538.17" y1="494.03" x2="538.17" y2="67.89" xlink:href="#linear-gradient"/>
    <linearGradient id="linear-gradient-22" x1="538.46" y1="493.77" x2="538.46" y2="67.56" xlink:href="#linear-gradient"/>
    <linearGradient id="linear-gradient-23" x1="538.75" y1="493.51" x2="538.75" y2="67.22" xlink:href="#linear-gradient"/>
    <linearGradient id="linear-gradient-24" x1="539.04" y1="493.25" x2="539.04" y2="66.88" xlink:href="#linear-gradient"/>
    <linearGradient id="linear-gradient-25" x1="539.33" y1="492.99" x2="539.33" y2="66.54" xlink:href="#linear-gradient"/>
    <linearGradient id="linear-gradient-26" x1="539.62" y1="492.73" x2="539.62" y2="66.2" xlink:href="#linear-gradient"/>
    <linearGradient id="linear-gradient-27" x1="539.91" y1="492.47" x2="539.91" y2="65.86" xlink:href="#linear-gradient"/>
    <linearGradient id="linear-gradient-28" x1="540.2" y1="492.21" x2="540.2" y2="65.52" xlink:href="#linear-gradient"/>
    <linearGradient id="linear-gradient-29" x1="540.49" y1="491.95" x2="540.49" y2="65.19" xlink:href="#linear-gradient"/>
    <linearGradient id="linear-gradient-30" x1="540.78" y1="491.69" x2="540.78" y2="64.85" xlink:href="#linear-gradient"/>
    <linearGradient id="linear-gradient-31" x1="541.07" y1="491.44" x2="541.07" y2="64.51" xlink:href="#linear-gradient"/>
    <linearGradient id="linear-gradient-32" x1="541.37" y1="491.18" x2="541.37" y2="64.17" xlink:href="#linear-gradient"/>
    <linearGradient id="linear-gradient-33" x1="541.06" y1="490.84" x2="541.06" y2="64.17" xlink:href="#linear-gradient"/>
    <linearGradient id="linear-gradient-34" x1="540.76" y1="490.5" x2="540.76" y2="64.17" xlink:href="#linear-gradient"/>
    <linearGradient id="linear-gradient-35" x1="540.45" y1="490.16" x2="540.45" y2="64.17" xlink:href="#linear-gradient"/>
    <linearGradient id="linear-gradient-36" x1="540.15" y1="489.82" x2="540.15" y2="64.17" xlink:href="#linear-gradient"/>
    <linearGradient id="linear-gradient-37" x1="539.84" y1="489.48" x2="539.84" y2="64.17" xlink:href="#linear-gradient"/>
    <linearGradient id="linear-gradient-38" x1="539.54" y1="489.14" x2="539.54" y2="64.17" xlink:href="#linear-gradient"/>
    <linearGradient id="linear-gradient-39" x1="539.23" y1="488.8" x2="539.23" y2="64.17" xlink:href="#linear-gradient"/>
    <linearGradient id="linear-gradient-40" x1="538.93" y1="488.47" x2="538.93" y2="64.17" xlink:href="#linear-gradient"/>
    <linearGradient id="linear-gradient-41" x1="538.62" y1="488.13" x2="538.62" y2="64.17" xlink:href="#linear-gradient"/>
    <linearGradient id="linear-gradient-42" x1="538.32" y1="487.79" x2="538.32" y2="64.17" xlink:href="#linear-gradient"/>
    <linearGradient id="linear-gradient-43" x1="538.01" y1="487.45" x2="538.01" y2="64.17" xlink:href="#linear-gradient"/>
    <linearGradient id="linear-gradient-44" x1="537.71" y1="487.11" x2="537.71" y2="64.17" xlink:href="#linear-gradient"/>
    <linearGradient id="linear-gradient-45" x1="537.4" y1="486.77" x2="537.4" y2="64.17" xlink:href="#linear-gradient"/>
    <linearGradient id="linear-gradient-46" x1="537.1" y1="486.43" x2="537.1" y2="64.17" xlink:href="#linear-gradient"/>
    <linearGradient id="linear-gradient-47" x1="536.79" y1="486.09" x2="536.79" y2="64.17" xlink:href="#linear-gradient"/>
    <linearGradient id="linear-gradient-48" x1="536.49" y1="485.76" x2="536.49" y2="64.17" xlink:href="#linear-gradient"/>
    <linearGradient id="linear-gradient-49" x1="536.18" y1="485.42" x2="536.18" y2="64.17" xlink:href="#linear-gradient"/>
    <linearGradient id="linear-gradient-50" x1="535.88" y1="485.08" x2="535.88" y2="64.17" xlink:href="#linear-gradient"/>
    <linearGradient id="linear-gradient-51" x1="535.57" y1="484.74" x2="535.57" y2="64.17" xlink:href="#linear-gradient"/>
    <linearGradient id="linear-gradient-52" x1="535.27" y1="484.4" x2="535.27" y2="64.17" xlink:href="#linear-gradient"/>
    <linearGradient id="linear-gradient-53" x1="534.96" y1="484.06" x2="534.96" y2="64.17" xlink:href="#linear-gradient"/>
    <linearGradient id="linear-gradient-54" x1="534.66" y1="483.72" x2="534.66" y2="64.17" xlink:href="#linear-gradient"/>
    <linearGradient id="linear-gradient-55" x1="534.35" y1="483.39" x2="534.35" y2="64.17" xlink:href="#linear-gradient"/>
    <linearGradient id="linear-gradient-56" x1="534.05" y1="483.05" x2="534.05" y2="64.17" xlink:href="#linear-gradient"/>
    <linearGradient id="linear-gradient-57" x1="533.74" y1="482.71" x2="533.74" y2="64.17" xlink:href="#linear-gradient"/>
    <linearGradient id="linear-gradient-58" x1="533.44" y1="482.37" x2="533.44" y2="64.17" xlink:href="#linear-gradient"/>
    <linearGradient id="linear-gradient-59" x1="533.13" y1="482.03" x2="533.13" y2="64.17" xlink:href="#linear-gradient"/>
    <linearGradient id="linear-gradient-60" x1="532.83" y1="481.69" x2="532.83" y2="64.17" xlink:href="#linear-gradient"/>
    <linearGradient id="linear-gradient-61" x1="532.53" y1="481.35" x2="532.53" y2="64.17" xlink:href="#linear-gradient"/>
    <linearGradient id="linear-gradient-62" x1="532.22" y1="481.01" x2="532.22" y2="64.17" xlink:href="#linear-gradient"/>
    <linearGradient id="linear-gradient-63" x1="531.92" y1="480.68" x2="531.92" y2="64.17" xlink:href="#linear-gradient"/>
    <linearGradient id="linear-gradient-64" x1="543.16" y1="502.25" x2="543.16" y2="0" xlink:href="#linear-gradient"/>
    <linearGradient id="linear-gradient-65" x1="542.74" y1="500.58" x2="542.74" y2="1.5" xlink:href="#linear-gradient"/>
    <linearGradient id="linear-gradient-66" x1="542.33" y1="498.92" x2="542.33" y2="3" xlink:href="#linear-gradient"/>
    <linearGradient id="linear-gradient-67" x1="541.92" y1="497.26" x2="541.92" y2="4.51" xlink:href="#linear-gradient"/>
    <linearGradient id="linear-gradient-68" x1="541.5" y1="495.59" x2="541.5" y2="6.01" xlink:href="#linear-gradient"/>
    <linearGradient id="linear-gradient-69" x1="541.09" y1="493.93" x2="541.09" y2="7.51" xlink:href="#linear-gradient"/>
    <linearGradient id="linear-gradient-70" x1="540.68" y1="492.26" x2="540.68" y2="9.01" xlink:href="#linear-gradient"/>
    <linearGradient id="linear-gradient-71" x1="540.27" y1="490.6" x2="540.27" y2="10.51" xlink:href="#linear-gradient"/>
    <linearGradient id="linear-gradient-72" x1="539.85" y1="488.93" x2="539.85" y2="12.01" xlink:href="#linear-gradient"/>
    <linearGradient id="linear-gradient-73" x1="539.44" y1="487.27" x2="539.44" y2="13.52" xlink:href="#linear-gradient"/>
    <linearGradient id="linear-gradient-74" x1="539.03" y1="485.61" x2="539.03" y2="15.02" xlink:href="#linear-gradient"/>
    <linearGradient id="linear-gradient-75" x1="538.62" y1="483.94" x2="538.62" y2="16.52" xlink:href="#linear-gradient"/>
    <linearGradient id="linear-gradient-76" x1="538.2" y1="482.28" x2="538.2" y2="18.02" xlink:href="#linear-gradient"/>
    <linearGradient id="linear-gradient-77" x1="537.79" y1="480.61" x2="537.79" y2="19.52" xlink:href="#linear-gradient"/>
    <linearGradient id="linear-gradient-78" x1="537.38" y1="478.95" x2="537.38" y2="21.02" xlink:href="#linear-gradient"/>
    <linearGradient id="linear-gradient-79" x1="536.97" y1="477.29" x2="536.97" y2="22.53" xlink:href="#linear-gradient"/>
    <linearGradient id="linear-gradient-80" x1="536.55" y1="475.62" x2="536.55" y2="24.03" xlink:href="#linear-gradient"/>
    <linearGradient id="linear-gradient-81" x1="536.14" y1="473.96" x2="536.14" y2="25.53" xlink:href="#linear-gradient"/>
    <linearGradient id="linear-gradient-82" x1="535.73" y1="472.29" x2="535.73" y2="27.03" xlink:href="#linear-gradient"/>
    <linearGradient id="linear-gradient-83" x1="535.32" y1="470.63" x2="535.32" y2="28.53" xlink:href="#linear-gradient"/>
    <linearGradient id="linear-gradient-84" x1="534.9" y1="468.96" x2="534.9" y2="30.04" xlink:href="#linear-gradient"/>
    <linearGradient id="linear-gradient-85" x1="534.49" y1="467.3" x2="534.49" y2="31.54" xlink:href="#linear-gradient"/>
    <linearGradient id="linear-gradient-86" x1="534.08" y1="465.64" x2="534.08" y2="33.04" xlink:href="#linear-gradient"/>
    <linearGradient id="linear-gradient-87" x1="533.67" y1="463.97" x2="533.67" y2="34.54" xlink:href="#linear-gradient"/>
    <linearGradient id="linear-gradient-88" x1="533.25" y1="462.31" x2="533.25" y2="36.04" xlink:href="#linear-gradient"/>
    <linearGradient id="linear-gradient-89" x1="532.84" y1="460.64" x2="532.84" y2="37.54" xlink:href="#linear-gradient"/>
    <linearGradient id="linear-gradient-90" x1="532.43" y1="458.98" x2="532.43" y2="39.05" xlink:href="#linear-gradient"/>
    <linearGradient id="linear-gradient-91" x1="532.01" y1="457.31" x2="532.01" y2="40.55" xlink:href="#linear-gradient"/>
    <linearGradient id="linear-gradient-92" x1="531.6" y1="455.65" x2="531.6" y2="42.05" xlink:href="#linear-gradient"/>
    <linearGradient id="linear-gradient-93" x1="531.19" y1="453.99" x2="531.19" y2="43.55" xlink:href="#linear-gradient"/>
    <linearGradient id="linear-gradient-94" x1="530.78" y1="452.32" x2="530.78" y2="45.05" xlink:href="#linear-gradient"/>
    <linearGradient id="linear-gradient-95" x1="530.36" y1="450.66" x2="530.36" y2="46.56" xlink:href="#linear-gradient"/>
  </defs>
  <g class="cls-68">
    <g id="Layer_2" data-name="Layer 2">
      <g id="Layer_1-2" data-name="Layer 1">
        <g>
          <g class="cls-83">
            <polygon class="cls-54" points="0 74.67 533.13 499.22 1064.7 74.67 0 74.67"/>
            <polygon class="cls-20" points="3.68 74.33 533.13 498.96 1061.59 74.33 3.68 74.33"/>
            <polygon class="cls-61" points="7.37 73.99 533.13 498.7 1058.49 73.99 7.37 73.99"/>
            <polygon class="cls-43" points="11.05 73.65 533.13 498.44 1055.39 73.65 11.05 73.65"/>
            <polygon class="cls-62" points="14.74 73.31 533.13 498.18 1052.28 73.31 14.74 73.31"/>
            <polygon class="cls-69" points="18.42 72.98 533.13 497.92 1049.18 72.98 18.42 72.98"/>
            <polygon class="cls-56" points="22.11 72.64 533.13 497.66 1046.08 72.64 22.11 72.64"/>
            <polygon class="cls-79" points="25.79 72.3 533.13 497.4 1042.97 72.3 25.79 72.3"/>
            <polygon class="cls-32" points="29.48 71.96 533.13 497.14 1039.87 71.96 29.48 71.96"/>
            <polygon class="cls-6" points="33.16 71.62 533.13 496.88 1036.77 71.62 33.16 71.62"/>
            <polygon class="cls-28" points="36.85 71.28 533.13 496.62 1033.67 71.28 36.85 71.28"/>
            <polygon class="cls-77" points="40.53 70.94 533.13 496.37 1030.56 70.94 40.53 70.94"/>
            <polygon class="cls-80" points="44.22 70.6 533.13 496.11 1027.46 70.6 44.22 70.6"/>
            <polygon class="cls-48" points="47.9 70.27 533.13 495.85 1024.36 70.27 47.9 70.27"/>
            <polygon class="cls-17" points="51.59 69.93 533.13 495.59 1021.25 69.93 51.59 69.93"/>
            <polygon class="cls-38" points="55.27 69.59 533.13 495.33 1018.15 69.59 55.27 69.59"/>
            <polygon class="cls-50" points="58.96 69.25 533.13 495.07 1015.05 69.25 58.96 69.25"/>
            <polygon class="cls-15" points="62.64 68.91 533.13 494.81 1011.94 68.91 62.64 68.91"/>
            <polygon class="cls-90" points="66.33 68.57 533.13 494.55 1008.84 68.57 66.33 68.57"/>
            <polygon class="cls-2" points="70.01 68.23 533.13 494.29 1005.74 68.23 70.01 68.23"/>
            <polygon class="cls-95" points="73.7 67.89 533.13 494.03 1002.64 67.89 73.7 67.89"/>
            <polygon class="cls-8" points="77.38 67.56 533.13 493.77 999.53 67.56 77.38 67.56"/>
            <polygon class="cls-12" points="81.06 67.22 533.13 493.51 996.43 67.22 81.06 67.22"/>
            <polygon class="cls-5" points="84.75 66.88 533.13 493.25 993.33 66.88 84.75 66.88"/>
            <polygon class="cls-42" points="88.43 66.54 533.13 492.99 990.22 66.54 88.43 66.54"/>
            <polygon class="cls-24" points="92.12 66.2 533.13 492.73 987.12 66.2 92.12 66.2"/>
            <polygon class="cls-26" points="95.8 65.86 533.13 492.47 984.02 65.86 95.8 65.86"/>
            <polygon class="cls-36" points="99.49 65.52 533.13 492.21 980.91 65.52 99.49 65.52"/>
            <polygon class="cls-74" points="103.17 65.19 533.13 491.95 977.81 65.19 103.17 65.19"/>
            <polygon class="cls-86" points="106.86 64.85 533.13 491.69 974.71 64.85 106.86 64.85"/>
            <polygon class="cls-66" points="110.54 64.51 533.13 491.44 971.61 64.51 110.54 64.51"/>
            <polygon class="cls-93" points="114.23 64.17 533.13 491.18 968.5 64.17 114.23 64.17"/>
            <polygon class="cls-71" points="118.64 64.17 533.13 490.84 963.48 64.17 118.64 64.17"/>
            <polygon class="cls-59" points="123.06 64.17 533.13 490.5 958.45 64.17 123.06 64.17"/>
            <polygon class="cls-52" points="127.47 64.17 533.13 490.16 953.43 64.17 127.47 64.17"/>
            <polygon class="cls-88" points="131.89 64.17 533.13 489.82 948.4 64.17 131.89 64.17"/>
            <polygon class="cls-34" points="136.3 64.17 533.13 489.48 943.38 64.17 136.3 64.17"/>
            <polygon class="cls-64" points="140.72 64.17 533.13 489.14 938.36 64.17 140.72 64.17"/>
            <polygon class="cls-40" points="145.13 64.17 533.13 488.8 933.33 64.17 145.13 64.17"/>
            <polygon class="cls-33" points="149.55 64.17 533.13 488.47 928.31 64.17 149.55 64.17"/>
            <polygon class="cls-96" points="153.96 64.17 533.13 488.13 923.28 64.17 153.96 64.17"/>
            <polygon class="cls-11" points="158.38 64.17 533.13 487.79 918.26 64.17 158.38 64.17"/>
            <polygon class="cls-30" points="162.79 64.17 533.13 487.45 913.23 64.17 162.79 64.17"/>
            <polygon class="cls-57" points="167.21 64.17 533.13 487.11 908.21 64.17 167.21 64.17"/>
            <polygon class="cls-91" points="171.62 64.17 533.13 486.77 903.18 64.17 171.62 64.17"/>
            <polygon class="cls-14" points="176.03 64.17 533.13 486.43 898.16 64.17 176.03 64.17"/>
            <polygon class="cls-47" points="180.45 64.17 533.13 486.09 893.14 64.17 180.45 64.17"/>
            <polygon class="cls-92" points="184.86 64.17 533.13 485.76 888.11 64.17 184.86 64.17"/>
            <polygon class="cls-58" points="189.28 64.17 533.13 485.42 883.09 64.17 189.28 64.17"/>
            <polygon class="cls-84" points="193.69 64.17 533.13 485.08 878.06 64.17 193.69 64.17"/>
            <polygon class="cls-72" points="198.11 64.17 533.13 484.74 873.04 64.17 198.11 64.17"/>
            <polygon class="cls-45" points="202.52 64.17 533.13 484.4 868.01 64.17 202.52 64.17"/>
            <polygon class="cls-10" points="206.94 64.17 533.13 484.06 862.99 64.17 206.94 64.17"/>
            <polygon class="cls-67" points="211.35 64.17 533.13 483.72 857.96 64.17 211.35 64.17"/>
            <polygon class="cls-37" points="215.77 64.17 533.13 483.39 852.94 64.17 215.77 64.17"/>
            <polygon class="cls-29" points="220.18 64.17 533.13 483.05 847.92 64.17 220.18 64.17"/>
            <polygon class="cls-73" points="224.6 64.17 533.13 482.71 842.89 64.17 224.6 64.17"/>
            <polygon class="cls-46" points="229.01 64.17 533.13 482.37 837.87 64.17 229.01 64.17"/>
            <polygon class="cls-85" points="233.43 64.17 533.13 482.03 832.84 64.17 233.43 64.17"/>
            <polygon class="cls-19" points="237.84 64.17 533.13 481.69 827.82 64.17 237.84 64.17"/>
            <polygon class="cls-1" points="242.26 64.17 533.13 481.35 822.79 64.17 242.26 64.17"/>
            <polygon class="cls-82" points="246.67 64.17 533.13 481.01 817.77 64.17 246.67 64.17"/>
            <polygon class="cls-97" points="251.09 64.17 533.13 480.68 812.74 64.17 251.09 64.17"/>
          </g>
          <g class="cls-83">
            <polygon class="cls-53" points="533.43 502.25 914.37 0 171.94 0 533.43 502.25"/>
            <polygon class="cls-21" points="533.43 500.58 908.51 1.5 176.97 1.5 533.43 500.58"/>
            <polygon class="cls-60" points="533.43 498.92 902.65 3 182.01 3 533.43 498.92"/>
            <polygon class="cls-44" points="533.43 497.26 896.79 4.51 187.04 4.51 533.43 497.26"/>
            <polygon class="cls-63" points="533.43 495.59 890.93 6.01 192.07 6.01 533.43 495.59"/>
            <polygon class="cls-70" points="533.43 493.93 885.08 7.51 197.11 7.51 533.43 493.93"/>
            <polygon class="cls-55" points="533.43 492.26 879.22 9.01 202.14 9.01 533.43 492.26"/>
            <polygon class="cls-78" points="533.43 490.6 873.36 10.51 207.17 10.51 533.43 490.6"/>
            <polygon class="cls-31" points="533.43 488.93 867.5 12.01 212.21 12.01 533.43 488.93"/>
            <polygon class="cls-7" points="533.43 487.27 861.64 13.52 217.24 13.52 533.43 487.27"/>
            <polygon class="cls-27" points="533.43 485.61 855.78 15.02 222.27 15.02 533.43 485.61"/>
            <polygon class="cls-76" points="533.43 483.94 849.93 16.52 227.31 16.52 533.43 483.94"/>
            <polygon class="cls-81" points="533.43 482.28 844.07 18.02 232.34 18.02 533.43 482.28"/>
            <polygon class="cls-49" points="533.43 480.61 838.21 19.52 237.37 19.52 533.43 480.61"/>
            <polygon class="cls-18" points="533.43 478.95 832.35 21.02 242.41 21.02 533.43 478.95"/>
            <polygon class="cls-39" points="533.43 477.29 826.49 22.53 247.44 22.53 533.43 477.29"/>
            <polygon class="cls-51" points="533.43 475.62 820.63 24.03 252.47 24.03 533.43 475.62"/>
            <polygon class="cls-16" points="533.43 473.96 814.77 25.53 257.51 25.53 533.43 473.96"/>
            <polygon class="cls-89" points="533.43 472.29 808.92 27.03 262.54 27.03 533.43 472.29"/>
            <polygon class="cls-3" points="533.43 470.63 803.06 28.53 267.57 28.53 533.43 470.63"/>
            <polygon class="cls-94" points="533.43 468.96 797.2 30.04 272.61 30.04 533.43 468.96"/>
            <polygon class="cls-9" points="533.43 467.3 791.34 31.54 277.64 31.54 533.43 467.3"/>
            <polygon class="cls-13" points="533.43 465.64 785.48 33.04 282.67 33.04 533.43 465.64"/>
            <polygon class="cls-4" points="533.43 463.97 779.62 34.54 287.71 34.54 533.43 463.97"/>
            <polygon class="cls-41" points="533.43 462.31 773.76 36.04 292.74 36.04 533.43 462.31"/>
            <polygon class="cls-23" points="533.43 460.64 767.91 37.54 297.77 37.54 533.43 460.64"/>
            <polygon class="cls-25" points="533.43 458.98 762.05 39.05 302.81 39.05 533.43 458.98"/>
            <polygon class="cls-35" points="533.43 457.31 756.19 40.55 307.84 40.55 533.43 457.31"/>
            <polygon class="cls-75" points="533.43 455.65 750.33 42.05 312.87 42.05 533.43 455.65"/>
            <polygon class="cls-87" points="533.43 453.99 744.47 43.55 317.91 43.55 533.43 453.99"/>
            <polygon class="cls-65" points="533.43 452.32 738.61 45.05 322.94 45.05 533.43 452.32"/>
            <polygon class="cls-22" points="533.43 450.66 732.75 46.56 327.97 46.56 533.43 450.66"/>
          </g>
        </g>
      </g>
    </g>
  </g>
</svg>