<?xml version="1.0" encoding="UTF-8"?>
<svg id="Layer_2" data-name="Layer 2" xmlns="http://www.w3.org/2000/svg" xmlns:xlink="http://www.w3.org/1999/xlink" viewBox="0 0 843.04 276.54">
  <defs>
    <style>
      .cls-1 {
        fill: url(#linear-gradient);
      }
    </style>
    <linearGradient id="linear-gradient" x1="0" y1="138.27" x2="843.04" y2="138.27" gradientUnits="userSpaceOnUse">
      <stop offset="0" stop-color="#ffeef5"/>
      <stop offset="1" stop-color="#ffe5e1"/>
    </linearGradient>
  </defs>
  <g id="Layer_2-2" data-name="Layer 2">
    <g>
      <path class="cls-1" d="M0,45.62h60.27c6.29,0,11.39.82,15.32,2.44,3.92,1.63,6.75,3.92,8.49,6.88,1.74,2.96,2.61,6.48,2.61,10.54,0,3.63-.8,6.81-2.39,9.55-1.59,2.74-3.83,4.96-6.71,6.66-1.41.89-2.92,1.63-4.55,2.22,2.29.59,4.48,1.33,6.55,2.22,3.48,1.48,6.29,3.66,8.44,6.55,2.15,2.89,3.22,6.55,3.22,10.99,0,6.81-2.18,12.16-6.55,16.04-4.37,3.88-10.92,5.83-19.65,5.83H0V45.62ZM19.76,78.7h34.63c2.66,0,4.9-.24,6.72-.72,1.81-.48,3.25-1.39,4.33-2.72,1.07-1.33,1.61-3.22,1.61-5.66,0-2.22-.41-3.98-1.22-5.27-.81-1.29-1.98-2.24-3.5-2.83-1.52-.59-3.5-.96-5.94-1.11H19.76v18.32ZM19.76,110.78h40.85c2.22-.15,4.07-.52,5.55-1.11,1.48-.59,2.63-1.57,3.44-2.94.81-1.37,1.22-3.2,1.22-5.49s-.48-4.09-1.44-5.38c-.96-1.29-2.18-2.22-3.66-2.77-1.48-.56-3.26-.87-5.33-.94H19.76v18.65Z"/>
      <path class="cls-1" d="M154.96,127.76c-10.88,0-20.37-1.74-28.47-5.22-8.1-3.48-14.36-8.4-18.76-14.76-4.4-6.36-6.6-13.76-6.6-22.2s2.22-15.8,6.66-22.09c4.44-6.29,10.71-11.16,18.81-14.6,8.1-3.44,17.55-5.16,28.36-5.16s20.15,1.72,28.25,5.16c8.1,3.44,14.38,8.31,18.81,14.6,4.44,6.29,6.66,13.65,6.66,22.09s-2.2,15.84-6.6,22.2c-4.4,6.37-10.66,11.29-18.76,14.76-8.1,3.48-17.56,5.22-28.36,5.22ZM154.96,111.11c6.66,0,12.5-1.07,17.54-3.22,5.03-2.15,8.92-5.14,11.66-8.99,2.74-3.85,4.11-8.29,4.11-13.32s-1.35-9.45-4.05-13.26c-2.7-3.81-6.57-6.77-11.6-8.88-5.03-2.11-10.92-3.16-17.65-3.16s-12.62,1.05-17.65,3.16c-5.03,2.11-8.9,5.07-11.6,8.88-2.7,3.81-4.05,8.23-4.05,13.26s1.35,9.57,4.05,13.38c2.7,3.81,6.57,6.79,11.6,8.94,5.03,2.15,10.92,3.22,17.65,3.22ZM133.2,27.31l21.53-8.88,21.53,8.88v10.32l-21.53-8.66-21.53,8.66v-10.32ZM195.25,0l-12.88,23.31-10.54-.11L184.71,0h10.54Z"/>
      <path class="cls-1" d="M274.95,127.76c-10.21,0-19.26-1.74-27.14-5.22-7.88-3.48-14-8.42-18.37-14.82-4.37-6.4-6.55-13.78-6.55-22.14s2.2-15.71,6.6-22.03c4.4-6.33,10.53-11.21,18.37-14.65,7.84-3.44,16.87-5.16,27.08-5.16,9.17,0,17.44,1.39,24.81,4.16,7.36,2.78,13.28,6.68,17.76,11.71,4.48,5.03,7.08,10.77,7.83,17.21h-20.87c-.52-2.89-2.07-5.61-4.66-8.16-2.59-2.55-6.03-4.59-10.32-6.1-4.29-1.52-9.14-2.28-14.54-2.28-6.29,0-11.82,1.07-16.59,3.22-4.77,2.15-8.46,5.12-11.04,8.94-2.59,3.81-3.88,8.2-3.88,13.15s1.29,9.38,3.88,13.26c2.59,3.88,6.27,6.9,11.04,9.05,4.77,2.15,10.3,3.22,16.59,3.22,5.48,0,10.34-.78,14.6-2.33,4.25-1.55,7.68-3.61,10.27-6.16,2.59-2.55,4.14-5.31,4.66-8.27h20.87c-.74,6.44-3.33,12.21-7.77,17.32-4.44,5.11-10.36,9.07-17.76,11.88-7.4,2.81-15.69,4.22-24.86,4.22Z"/>
      <path class="cls-1" d="M385.61,45.62h92.57v16.65h-36.41v63.27h-19.65v-63.27h-36.52v-16.65Z"/>
      <path class="cls-1" d="M566.77,45.62h19.65v79.92h-19.65v-31.63h-56.5v31.63h-19.76V45.62h19.76v31.63h56.5v-31.63Z"/>
      <path class="cls-1" d="M640.91,45.62h25.53l42.62,79.92h-21.65l-8.32-16.87h-51.06l-8.33,16.87h-21.64l42.85-79.92ZM653.57,37.3c-4.88,0-9.08-.67-12.6-2-3.52-1.33-6.29-3.5-8.33-6.49-2.04-3-3.05-6.9-3.05-11.71h10.99c0,3.55,1.04,6.14,3.11,7.77,2.07,1.63,5.36,2.44,9.88,2.44s7.79-.81,9.82-2.44c2.03-1.63,3.05-4.22,3.05-7.77h10.99c0,4.81-1.02,8.71-3.05,11.71-2.04,3-4.81,5.16-8.33,6.49-3.52,1.33-7.68,2-12.49,2ZM635.14,94.35h36.85l-18.43-37.3-18.43,37.3Z"/>
      <path class="cls-1" d="M720.72,45.62h30.3l30.97,58.05,30.97-58.05h30.08v79.92h-19.54v-61.38l-32.41,61.38h-18.31l-32.3-61.38v61.38h-19.76V45.62Z"/>
      <path class="cls-1" d="M44.79,196.62h30.3l30.97,58.05,30.97-58.05h30.08v79.92h-19.54v-61.38l-32.41,61.38h-18.31l-32.3-61.38v61.38h-19.76v-79.92Z"/>
      <path class="cls-1" d="M221.72,196.62h25.53l42.62,79.92h-21.65l-8.32-16.87h-51.06l-8.33,16.87h-21.64l42.85-79.92ZM215.95,245.35h36.85l-18.43-37.3-18.43,37.3Z"/>
      <path class="cls-1" d="M316.96,249.68l-43.96-53.06h23.09l30.75,38.63,30.86-38.63h22.75l-43.84,53.06v26.86h-19.65v-26.86Z"/>
      <path class="cls-1" d="M441.39,196.62h30.3l30.97,58.05,30.97-58.05h30.08v79.92h-19.54v-61.38l-32.41,61.38h-18.31l-32.3-61.38v61.38h-19.76v-79.92Z"/>
      <path class="cls-1" d="M618.32,196.62h25.53l42.62,79.92h-21.65l-8.32-16.87h-51.06l-8.33,16.87h-21.64l42.85-79.92ZM630.64,186.63c-4.88,0-9.08-.67-12.6-2-3.52-1.33-6.29-3.5-8.33-6.49-2.04-3-3.05-6.9-3.05-11.71h10.99c0,3.63,1.04,6.23,3.11,7.83,2.07,1.59,5.36,2.39,9.88,2.39s7.79-.81,9.82-2.44c2.03-1.63,3.05-4.22,3.05-7.77h10.99c0,4.81-1.02,8.71-3.05,11.71-2.04,3-4.81,5.16-8.33,6.49-3.52,1.33-7.68,2-12.49,2ZM612.55,245.35h36.85l-18.43-37.3-18.43,37.3ZM647.96,143.12l-11.32,21.98-11.77-.11,11.32-21.87h11.77Z"/>
      <path class="cls-1" d="M698.13,196.62h28.75l51.84,61.72v-61.72h19.54v79.92h-28.53l-51.84-61.72v61.72h-19.76v-79.92Z"/>
    </g>
  </g>
</svg>